<svg width="960" height="366" xmlns="http://www.w3.org/2000/svg" xmlns:xlink="http://www.w3.org/1999/xlink"><defs><path d="M22.044 14.2c.408-.78.672-1.74.768-2.88H24v2.664h.72V11.32h1.212v1.656c0 .3-.108.456-.312.456-.18 0-.372-.012-.588-.024l.192.696h.624c.54 0 .816-.288.816-.864V6.052h-1.44c.264-.372.516-.828.78-1.356v-.6h-2.208c.12-.24.228-.504.324-.768l-.78-.18c-.504 1.26-1.152 2.28-1.92 3.06l.516.624c.048-.06.108-.12.168-.18v3.708c-.012 1.32-.24 2.412-.684 3.276l.624.564zm9.72-.096l.744-.18a24.343 24.343 0 00-.972-3.132l-.708.228c.18.468.348.96.504 1.464-.396.096-.804.18-1.212.264V10.12h1.944V5.296H30.12V3.244h-.828v2.052h-1.92v4.824h1.92v2.784c-.708.12-1.44.216-2.184.3l.204.804c1.5-.216 2.904-.492 4.224-.816.072.288.156.6.228.912zm-7.428-8.052H22.62c.288-.384.564-.792.816-1.248h1.656c-.252.468-.504.888-.756 1.248zm6.924 3.276h-1.176v-3.24h1.176v3.24zm-1.932 0h-1.152v-3.24h1.152v3.24zm-3.396-1.044H24.72V6.796h1.212v1.488zm-1.932 0h-1.14V6.796H24v1.488zm0 2.304h-1.152l.012-.276V9.028H24v1.56zm1.932 0H24.72v-1.56h1.212v1.56zm10.464 3.648c1.452-.564 2.676-1.188 3.66-1.884 1.008.66 2.28 1.272 3.816 1.836l.444-.804c-1.392-.48-2.58-1.008-3.552-1.584.984-.84 1.632-1.776 1.956-2.808v-.744h-4.908c.168-.432.312-.888.456-1.368h5.844v-.828h-5.616a33.77 33.77 0 00.564-2.832l-.876-.108a26.566 26.566 0 01-.576 2.94h-2.1l.684-2.364-.852-.144-.948 3.336h2.976c-.84 2.676-2.124 4.776-3.876 6.312l.444.792c1.368-1.116 2.496-2.616 3.372-4.512.396.84 1.056 1.62 1.992 2.34-.9.588-2.016 1.128-3.36 1.62l.456.804zM42.612 5.8l.612-.612a14.568 14.568 0 00-2.148-1.98l-.576.564c.9.72 1.608 1.392 2.112 2.028zm-2.604 5.508c-.96-.696-1.644-1.452-2.052-2.268h3.888c-.336.816-.948 1.572-1.836 2.268zm14.1 2.784c.996 0 1.56-.492 1.704-1.464.12-.96.192-3.528.192-7.68h-4.212c.144-.528.264-1.08.36-1.656l-.852-.108c-.276 1.704-.792 3.144-1.536 4.32l.552.72c.48-.72.888-1.548 1.224-2.472h3.648c-.012 3.72-.072 5.928-.18 6.624-.108.624-.456.948-1.032.948-.384 0-.828-.024-1.356-.048l.192.78c.612.024 1.044.036 1.296.036zm-5.832.06V8.08c.336.432.744 1.008 1.212 1.704l.48-.732a31.494 31.494 0 00-1.692-1.92v-.756h1.476v-.828h-1.476v-2.34h-.852v2.34h-1.74v.828h1.68c-.384 1.512-1.02 2.868-1.92 4.056l.372.936c.672-.996 1.2-2.1 1.608-3.324v6.108h.852zm5.496-2.196l.756-.336a25.309 25.309 0 00-1.08-3.012l-.72.252c.168.408.348.864.516 1.368-.576.144-1.236.288-1.956.432.348-.636.816-1.752 1.404-3.348l-.756-.276c-.852 2.4-1.44 3.684-1.776 3.864l.156.708a48.39 48.39 0 003.144-.732c.096.336.204.696.312 1.08zm11.148.744v-1.188h3.156v-.732H64.92v-.996h2.808v-.708H64.92v-.96h2.568v-1.68h.804v-.72h-.804V4.048H64.92v-.876h-.84v.876h-2.1v.72h2.1v.948h-2.688v.72h2.688v.96h-2.1v.72h2.1v.96h-2.352v.708h2.352v.996h-2.724v.732h2.724V12.7h.84zm-6.66 1.392a6.354 6.354 0 001.416-1.476c.12.12.252.228.408.348.936.624 2.484.936 4.644.936h3.552l.144-.828c-1.392.036-2.748.06-4.068.06-1.632-.024-2.868-.252-3.684-.708a2.652 2.652 0 01-.588-.48c.576-1.104.9-2.448.948-4.032v-.516h-1.884a28.837 28.837 0 001.776-2.868V3.82h-2.94v.816h1.968a22.252 22.252 0 01-1.92 2.88v.672h2.22c-.072 1.14-.312 2.136-.72 2.988-.312-.528-.6-1.224-.84-2.076l-.72.264c.288 1.032.672 1.884 1.14 2.556a5.971 5.971 0 01-1.416 1.44l.564.732zm8.388-8.376H64.92v-.948h1.728v.948zm0 1.68H64.92v-.96h1.728v.96z" id="a"/><path d="M32.268 7.356v-.732h-1.824a6.6 6.6 0 00.444-1.296h.984v-.72h-2.544c-.12-.384-.252-.732-.372-1.032l-.864.144c.144.276.288.576.408.888h-2.388v.72h.96c.168.384.324.816.468 1.296h-1.788v.732h6.516zm-10.152.78c.396-.672.744-1.428 1.056-2.256h2.352v-.828h-2.076c.12-.384.228-.804.336-1.248l-.828-.18c-.324 1.488-.84 2.844-1.548 4.068l.708.444zm7.5-1.512H28.32c-.132-.468-.264-.9-.408-1.296h2.172a5.252 5.252 0 01-.468 1.296zm-6.312 7.728a8.618 8.618 0 002.22-1.044l-.156-.744c-.42.3-.84.552-1.248.744v-2.784h1.536v-.792H24.12V8.256h1.26v-.78h-2.724v.78h.624v1.476h-1.5v.792h1.5v2.724c0 .18-.108.312-.312.384l.336.72zm2.172.408c.996-.276 1.704-.66 2.136-1.164.372-.444.624-1.032.756-1.752h1.056v1.728c0 .66.336.996 1.02.996h.876c.372 0 .648-.084.816-.24.192-.204.324-.756.396-1.668l-.708-.216c-.036.684-.108 1.104-.216 1.248-.084.108-.228.168-.42.168h-.516c-.3 0-.444-.156-.444-.456v-1.56h1.224V8.076h-4.968v3.768h1.08c-.108.528-.312.948-.6 1.284-.372.384-.972.696-1.788.912l.3.72zm5.196-5.124h-3.408V8.76h3.408v.876zm0 1.512h-3.408v-.876h3.408v.876zm8.82 3.576c.264 0 .504-.012.72-.036.6-.072 1.02-.252 1.248-.516.264-.324.396-.9.396-1.716a6.066 6.066 0 00-.216-1.32c.156-.072.312-.144.48-.216a9.015 9.015 0 001.884 3.252l.564-.708c-.864-.84-1.464-1.8-1.8-2.88.456-.252.864-.54 1.236-.864l-.564-.648c-.552.528-1.248.972-2.064 1.332-.264-.6-.66-1.152-1.176-1.68l.012-.012H43.8V6.096h-2.232c.312-.3.624-.648.936-1.056v-.564h-3.012c.168-.204.324-.42.492-.66l-.888-.204a8.443 8.443 0 01-2.892 2.58l.528.648c.144-.096.288-.192.456-.288v2.16h1.968c-.624.588-1.5 1.008-2.64 1.248l.324.72c1.176-.264 2.136-.732 2.856-1.392.168.192.336.396.48.612-.864.744-2.088 1.356-3.672 1.836l.42.708c1.512-.504 2.712-1.164 3.6-1.956a6 6 0 01.288.744c-1.032.96-2.472 1.752-4.344 2.352l.432.744c1.68-.6 3.036-1.38 4.068-2.316.012.144.024.288.024.444 0 .576-.084.96-.228 1.152a.93.93 0 01-.648.312c-.24.012-.528.024-.876.024l.252.78zm-3.756-.036V6.384c.36-.744.672-1.536.912-2.364l-.804-.384c-.504 1.848-1.296 3.492-2.4 4.92l.276.912c.408-.492.792-1.008 1.14-1.536v6.756h.876zm4.74-8.592h-2.652c.36-.288.72-.6 1.068-.948h2.604c-.336.336-.672.66-1.02.948zm2.484 1.908h-2.316c.168-.36.312-.768.408-1.2h1.908v1.2zm-3.228 0h-1.704v-1.2h2.184a4.19 4.19 0 01-.48 1.2zm7.272 6.504c.708 0 1.068-.348 1.068-1.02V10.02c.384-.156.756-.324 1.116-.504V8.64c-.36.18-.732.348-1.116.516V6.732h1.212v-.84h-1.212v-2.22h-.876v2.22H45.66v.84h1.536v2.76c-.552.192-1.128.36-1.716.492l.216.864a31.187 31.187 0 001.5-.48v2.892c0 .312-.168.468-.492.468a9.4 9.4 0 01-.984-.06l.18.84h1.104zm4.14.144V14.1h5.208v-.828h-2.22v-1.788h1.848v-.804h-1.848V9.06h1.848v-.816h-1.848V6.612h2.088v-.84h-2.292l.324-.12c-.156-.6-.372-1.248-.66-1.968l-.828.228c.276.6.516 1.224.708 1.86H51.3c.264-.612.492-1.236.672-1.884l-.84-.168a12.044 12.044 0 01-2.076 4.284l.288.912c.336-.408.66-.84.948-1.296v7.032h.852zm2.136-6.408h-2.136V6.612h2.136v1.632zm0 2.436h-2.136V9.06h2.136v1.62zm0 2.592h-2.136v-1.788h2.136v1.788zm8.436-.432c1.776-.948 2.832-2.148 3.168-3.6h3.264v-.816H65.04c.072-.504.108-1.104.132-1.776h2.568v-.792h-1.56a11.26 11.26 0 00.9-1.944l-.816-.288a14.371 14.371 0 01-.96 2.232H61.68v.792h2.64c-.024.672-.072 1.26-.144 1.776h-2.904v.816h2.712c-.36 1.2-1.308 2.16-2.82 2.904l.552.696zm1.596-7.008l.732-.36a16.316 16.316 0 00-1.128-1.752l-.78.372c.42.504.816 1.092 1.176 1.74zm-3.336.528l.624-.612c-.564-.624-1.26-1.236-2.088-1.86l-.588.564c.876.684 1.56 1.32 2.052 1.908zm-1.668 8.352c.66-1.104 1.14-1.644 1.428-1.644.144 0 .3.096.468.3.372.432.804.732 1.284.876.48.132 1.116.204 1.896.216.768.012 1.488.024 2.148.024h2.724l.204-.864c-.312.024-.756.036-1.332.048-.588.012-1.164.024-1.716.024-.948 0-1.74-.012-2.376-.024-.72-.024-1.26-.12-1.644-.288-.336-.156-.648-.408-.936-.756a2.03 2.03 0 00-.3-.276V7.86h-2.508v.792h1.704V12.3c-.492.216-1.056.828-1.692 1.836l.648.576zm9.228-1.848l.6-.648a19.28 19.28 0 00-2.7-2.268l-.516.576a19.68 19.68 0 012.616 2.34z" id="b"/><path d="M188.856 49.2c.78-1.584 1.188-3.696 1.236-6.336v-2.676h8.892v-.84h-4.392a9.318 9.318 0 00-.636-1.248l-.948.168c.24.336.456.696.648 1.08h-4.452v3.516c-.024 2.436-.384 4.332-1.056 5.7l.708.636zm5.376-3.204l.828-.192c-.336-1.704-.708-3.228-1.116-4.548l-.756.24c.432 1.44.78 2.94 1.044 4.5zm4.56 2.688v-.84h-2.532c.744-1.776 1.356-3.816 1.86-6.096l-.852-.228c-.552 2.52-1.2 4.62-1.944 6.324h-5.004v.84h8.472zm-6.684-1.968l.816-.204c-.384-1.656-.816-3.132-1.296-4.404l-.756.24a33.4 33.4 0 011.236 4.368zm8.7 2.376c.768-1.008 1.212-2.28 1.344-3.816h3.096v3.516h.888v-3.516h3.264v2.088c0 .504-.228.756-.66.756-.408 0-.852-.024-1.332-.048l.228.852h1.38c.84 0 1.26-.42 1.26-1.26v-8.988h-8.94v5.76c-.024 1.644-.42 3-1.188 4.068l.66.588zm8.592-7.512h-3.264v-2.064h3.264v2.064zm-4.152 0H202.2v-2.064h3.048v2.064zm0 2.904H202.2v-2.1h3.048v2.1zm4.152 0h-3.264v-2.1h3.264v2.1zm8.784-4.284v-.84h-2.448a19.122 19.122 0 00-.396-1.236l-.888.156c.156.324.3.684.444 1.08h-2.412v.84h5.7zm1.476 8.976v-9.684h2.148a33.625 33.625 0 01-1.176 3.372c.936 1.152 1.416 2.076 1.428 2.784-.012.432-.072.72-.192.876-.12.144-.396.228-.828.252-.228 0-.504-.024-.84-.048l.276.912c.984 0 1.644-.156 1.98-.444.312-.288.468-.804.468-1.548-.012-.72-.468-1.656-1.368-2.784.432-1.08.828-2.256 1.2-3.516V38.7h-3.936v10.476h.84zm-1.392-5.676v-.84h-1.452c.312-.54.588-1.152.84-1.836l-.804-.276c-.24.744-.54 1.452-.888 2.112h-1.26a11.729 11.729 0 00-.804-2.016l-.792.288c.3.528.552 1.104.768 1.728h-1.62v.84h6.012zm-4.476 5.616v-.672h3.072v.672h.852v-4.524h-4.776v4.524h.852zm3.072-1.488h-3.072v-2.22h3.072v2.22zm10.632 1.656v-.54h5.1v.54h.852V44.88h-4.224a18.406 18.406 0 001.968-.876h3.768v-.744h-2.532a11.732 11.732 0 001.932-1.644l-.708-.372c-.684.768-1.5 1.44-2.436 2.016h-1.536v-.864h2.556V41.7h-2.556v-.78h4.188v-2.28h-8.496v2.28h3.468v.78h-3.144v.696h3.144v.864h-4.452v.744h5.376c-1.548.66-3.36 1.104-5.448 1.32l.468.72c.636-.12 1.26-.24 1.86-.384v3.624h.852zm5.544-9h-1.764v-.996h1.764v.996zm-2.544 0h-1.728v-.996h1.728v.996zm-2.508 0H226.2v-.996h1.788v.996zm4.608 6.192h-5.1v-.924h5.1v.924zm0 1.56h-5.1v-.9h5.1v.9zm6.552.132c1.14 0 2.064-.408 2.784-1.224l.996 1.056h1.248l-1.704-1.8c.492-.876.768-1.944.816-3.216h-.972c-.06.972-.24 1.8-.552 2.472l-2.148-2.268c.348-.216.684-.444 1.02-.66.528-.432.804-.924.804-1.5 0-.552-.216-.984-.624-1.296-.384-.312-.888-.468-1.488-.468-.612 0-1.116.156-1.512.468-.432.336-.648.78-.648 1.356 0 .336.108.684.348 1.044.144.228.396.54.78.948l-1.032.576c-.744.54-1.116 1.212-1.116 2.004 0 .804.288 1.428.876 1.884.54.408 1.248.624 2.124.624zm-.06-5.532a10.05 10.05 0 01-.564-.684c-.264-.36-.384-.648-.384-.876 0-.336.096-.588.312-.756.192-.192.48-.288.852-.288.36 0 .648.096.864.312.192.192.288.432.288.744 0 .504-.372.972-1.116 1.404-.096.048-.18.096-.252.144zm.024 4.656c-.576 0-1.044-.144-1.404-.432-.384-.312-.576-.708-.576-1.188s.204-.912.636-1.272c.324-.252.684-.504 1.068-.744l2.448 2.604c-.552.684-1.272 1.032-2.172 1.032zm6.156 1.908c1.908-.216 3.288-.672 4.128-1.392 1.788.816 3.888 1.284 6.3 1.38l.216-.828c-2.304-.072-4.296-.468-5.976-1.176.336-.48.564-1.116.708-1.908h3.864v-4.752h-3.72V39.48h4.716v-.804H245.22v.804h4.704v1.044h-3.672v4.752h3.516c-.12.624-.336 1.14-.624 1.548a10.383 10.383 0 01-1.86-1.224l-.66.456c.588.504 1.236.948 1.932 1.332-.768.552-1.992.888-3.66 1.02l.372.792zm4.656-6.672h-2.82v-1.26h2.82v1.26zm3.732 0h-2.868v-1.26h2.868v1.26zm0 1.992h-2.904l.036-.852v-.42h2.868v1.272zm-3.768 0h-2.784v-1.272h2.82v.42c0 .288-.012.576-.036.852zm12.612-4.488v-.792h-2.268a14.079 14.079 0 00-.516-1.188l-.888.144c.204.312.384.66.552 1.044h-2.292v.792h5.412zm4.128 9.204v-6.408h1.248V42H264v-2.184c1.296-.072 2.46-.324 3.516-.732l-.432-.768c-1.164.504-2.472.78-3.924.804v5.136c-.06 1.824-.444 3.252-1.152 4.284l.612.648c.864-1.224 1.32-2.868 1.38-4.932v-1.428h1.776v6.408h.852zm-7.416.012c.696 0 1.044-.324 1.044-.972V44.88h2.112v-.792h-2.112v-1.344h2.316v-.78h-1.356c.228-.408.432-.876.624-1.392l-.78-.264c-.18.576-.384 1.128-.624 1.656h-1.32a9.468 9.468 0 00-.636-1.632l-.768.276c.24.42.456.876.636 1.356h-1.38v.78h2.424v1.344h-2.232v.792h2.232v3.192c0 .288-.156.432-.468.432-.168 0-.348-.024-.54-.06l.18.804h.648zm2.352-1.392l.72-.276c-.192-.648-.48-1.356-.84-2.136l-.72.192c.336.72.612 1.464.84 2.22zm-4.08 1.008c.552-.9.996-1.956 1.308-3.168l-.792-.168a9.381 9.381 0 01-1.236 2.88l.72.456z" id="c"/><path d="M32.268 7.356v-.732h-1.824a6.6 6.6 0 00.444-1.296h.984v-.72h-2.544c-.12-.384-.252-.732-.372-1.032l-.864.144c.144.276.288.576.408.888h-2.388v.72h.96c.168.384.324.816.468 1.296h-1.788v.732h6.516zm-10.152.78c.396-.672.744-1.428 1.056-2.256h2.352v-.828h-2.076c.12-.384.228-.804.336-1.248l-.828-.18c-.324 1.488-.84 2.844-1.548 4.068l.708.444zm7.5-1.512H28.32c-.132-.468-.264-.9-.408-1.296h2.172a5.252 5.252 0 01-.468 1.296zm-6.312 7.728a8.618 8.618 0 002.22-1.044l-.156-.744c-.42.3-.84.552-1.248.744v-2.784h1.536v-.792H24.12V8.256h1.26v-.78h-2.724v.78h.624v1.476h-1.5v.792h1.5v2.724c0 .18-.108.312-.312.384l.336.72zm2.172.408c.996-.276 1.704-.66 2.136-1.164.372-.444.624-1.032.756-1.752h1.056v1.728c0 .66.336.996 1.02.996h.876c.372 0 .648-.084.816-.24.192-.204.324-.756.396-1.668l-.708-.216c-.036.684-.108 1.104-.216 1.248-.084.108-.228.168-.42.168h-.516c-.3 0-.444-.156-.444-.456v-1.56h1.224V8.076h-4.968v3.768h1.08c-.108.528-.312.948-.6 1.284-.372.384-.972.696-1.788.912l.3.72zm5.196-5.124h-3.408V8.76h3.408v.876zm0 1.512h-3.408v-.876h3.408v.876zm8.82 3.576c.264 0 .504-.012.72-.036.6-.072 1.02-.252 1.248-.516.264-.324.396-.9.396-1.716a6.066 6.066 0 00-.216-1.32c.156-.072.312-.144.48-.216a9.015 9.015 0 001.884 3.252l.564-.708c-.864-.84-1.464-1.8-1.8-2.88.456-.252.864-.54 1.236-.864l-.564-.648c-.552.528-1.248.972-2.064 1.332-.264-.6-.66-1.152-1.176-1.68l.012-.012H43.8V6.096h-2.232c.312-.3.624-.648.936-1.056v-.564h-3.012c.168-.204.324-.42.492-.66l-.888-.204a8.443 8.443 0 01-2.892 2.58l.528.648c.144-.096.288-.192.456-.288v2.16h1.968c-.624.588-1.5 1.008-2.64 1.248l.324.72c1.176-.264 2.136-.732 2.856-1.392.168.192.336.396.48.612-.864.744-2.088 1.356-3.672 1.836l.42.708c1.512-.504 2.712-1.164 3.6-1.956a6 6 0 01.288.744c-1.032.96-2.472 1.752-4.344 2.352l.432.744c1.68-.6 3.036-1.38 4.068-2.316.012.144.024.288.024.444 0 .576-.084.96-.228 1.152a.93.93 0 01-.648.312c-.24.012-.528.024-.876.024l.252.78zm-3.756-.036V6.384c.36-.744.672-1.536.912-2.364l-.804-.384c-.504 1.848-1.296 3.492-2.4 4.92l.276.912c.408-.492.792-1.008 1.14-1.536v6.756h.876zm4.74-8.592h-2.652c.36-.288.72-.6 1.068-.948h2.604c-.336.336-.672.66-1.02.948zm2.484 1.908h-2.316c.168-.36.312-.768.408-1.2h1.908v1.2zm-3.228 0h-1.704v-1.2h2.184a4.19 4.19 0 01-.48 1.2zm16.452-1.548v-.828h-2.712c-.168-.72-.36-1.368-.564-1.932l-.876.144c.216.552.42 1.14.588 1.788h-2.772v.828h6.336zm-9.072 8.148c.708 0 1.068-.36 1.068-1.08V9.996c.468-.216.924-.444 1.38-.684v-.876c-.456.252-.912.492-1.38.708V6.732h1.332v-.828H48.18V3.732h-.876v2.172H45.66v.828h1.644v2.772c-.588.216-1.2.408-1.824.564l.216.864c.54-.168 1.08-.36 1.608-.564v2.94c0 .336-.168.504-.492.504-.312 0-.636-.024-.972-.048l.192.84h1.08zm9.348-.408v-.84h-2.352c.552-1.728 1.02-3.696 1.404-5.904l-.828-.216c-.42 2.448-.9 4.488-1.452 6.12h-3.696v.84h6.924zm-5.028-1.428l.804-.204c-.288-1.956-.624-3.684-1.008-5.196l-.792.252c.396 1.656.732 3.372.996 5.148zm11.04 1.932v-2.172c.36-.084.72-.168 1.092-.264v-.852c-.36.096-.72.18-1.092.264V4.98h.924v.672h.48c.168 2.016.696 3.876 1.584 5.58a10.094 10.094 0 01-2.424 2.76l.588.672a10.4 10.4 0 002.316-2.58c.552.9 1.224 1.764 2.028 2.592l.576-.66a12.86 12.86 0 01-2.148-2.724c.828-1.572 1.38-3.468 1.644-5.688v-.792h-4.644v-.648h-5.712v.816h.948v7.428l-1.08.156.204.84a58.957 58.957 0 003.876-.684v1.98h.84zm-.84-7.86h-2.16V4.98h2.16v1.86zm4.284 3.54c-.684-1.428-1.104-3-1.248-4.728h2.556c-.216 1.788-.66 3.36-1.308 4.728zm-4.284-.924h-2.16V7.632h2.16v1.824zm-2.16 2.82v-2.04h2.16v1.632a57.45 57.45 0 01-2.16.408z" id="d"/><path d="M64.254 22.3v-1.624h9.492v1.554h.98v-2.492h-5.082a12.321 12.321 0 00-.476-1.246l-1.078.182c.168.322.336.672.504 1.064h-5.32V22.3h.98zm-.644 2.282c1.736-.784 3.192-1.694 4.382-2.73l-.672-.602c-1.176.98-2.604 1.82-4.312 2.548l.602.784zm10.584-.028l.7-.686c-1.148-.868-2.576-1.736-4.256-2.604l-.644.63c1.778.938 3.178 1.82 4.2 2.66zm-8.246 6.86v-.588h6.258v.588h.966v-4.578c.476.224.994.448 1.554.672l.546-.826c-2.772-1.064-4.732-2.296-5.866-3.71h-.77c-1.4 1.54-3.374 2.772-5.936 3.724l.532.826a20.856 20.856 0 001.736-.742v4.634h.98zm7.07-4.648h-8.022c1.554-.77 2.898-1.736 4.018-2.912.952 1.092 2.296 2.072 4.004 2.912zm-.812 3.136h-6.258v-2.24h6.258v2.24zm10.024-7.406v-3.402h-4.27v3.402h4.27zm5.908 0v-3.402h-4.354v3.402h4.354zm-6.832-.854H78.87v-1.68h2.436v1.68zm5.922 0h-2.52v-1.68h2.52v1.68zm-8.19 9.772v-.602h2.394v.602h.896v-4.41h-3.514c1.316-.588 2.366-1.316 3.15-2.212h2.366c.7.854 1.736 1.596 3.08 2.212h-3.738v4.41h.896v-.602h2.618v.602h.896v-4.116c.308.112.63.238.98.35l.406-.854c-1.806-.49-3.164-1.162-4.074-2.002h3.78v-.896h-1.932a8.635 8.635 0 00-.77-1.232l-.854.28c.224.28.434.602.63.952h-3.612c.196-.336.378-.672.518-1.036l-.966-.098c-.168.392-.378.77-.644 1.134h-4.718v.896h3.864c-.98.84-2.352 1.526-4.144 2.058l.462.826c.392-.126.77-.252 1.148-.392v4.13h.882zm2.394-1.47h-2.394v-2.1h2.394v2.1zm5.754 0h-2.618v-2.1h2.618v2.1zm5.152-7.686v-1.736h9.324v1.736h1.022v-2.646h-5.166c-.168-.42-.322-.812-.49-1.148l-1.106.168c.182.294.35.616.518.98h-5.124v2.646h1.022zm-1.386 4.914c2.52-.434 4.606-1.022 6.258-1.778 1.736.84 3.71 1.33 5.95 1.498l.224-.91c-1.89-.14-3.598-.504-5.124-1.106 1.078-.616 1.904-1.316 2.478-2.114v-.812h-5.166c.224-.294.434-.602.644-.924l-.98-.21a10.374 10.374 0 01-3.416 3.15l.644.784a13.296 13.296 0 001.75-1.316 12.68 12.68 0 001.974 1.428c-1.484.588-3.36 1.05-5.614 1.414l.378.896zm6.272-2.758a12.583 12.583 0 01-2.422-1.568l.042-.042h4.69c-.574.588-1.344 1.134-2.31 1.61zm-3.108 7.028v-.602h6.02v.602h.98V27.06h-7.98v4.382h.98zm6.02-1.512h-6.02v-1.96h6.02v1.96zm5.068 1.526c1.26-1.806 1.918-3.962 1.988-6.468h9.016v-4.704h-4.424a23.588 23.588 0 00-.756-1.806l-1.078.168c.294.504.56 1.05.812 1.638h-4.564v4.382c-.028 2.506-.602 4.55-1.736 6.118l.742.672zm9.982-7.448h-7.994v-2.73h7.994v2.73z" id="e"/><path d="M65.388 31.428v-9.464c.546-.938.994-1.946 1.358-3.01l-.938-.448a15.647 15.647 0 01-3.346 5.824l.322 1.05a19.38 19.38 0 001.568-1.834v7.882h1.036zm8.232-.098c.378-.014.7-.224.952-.63.308-.56.546-1.414.728-2.562l-.882-.504c-.196 1.764-.476 2.66-.854 2.674-.476-.014-.994-.392-1.54-1.148-.602-.812-1.064-1.932-1.4-3.388a19.708 19.708 0 01-.336-2.31l4.62-.588-.154-.966-4.55.574a54.183 54.183 0 01-.126-3.948h-1.036c.014 1.54.07 2.898.168 4.074l-3.108.406.154.966 3.038-.392c.098 1.036.238 1.89.42 2.59.392 1.568.98 2.842 1.778 3.822.728.882 1.442 1.33 2.128 1.33zm-.546-9.884l.7-.686a17.461 17.461 0 00-2.17-2.128l-.644.63c.896.77 1.61 1.498 2.114 2.184zm12.978 9.87c1.232 0 2.03-.266 2.422-.77.364-.532.56-2.478.56-5.866H87.55l.77-5.53H82.3v.952h4.928l-.7 4.578H83.56l.616-3.528-.994-.07-.756 4.536h5.656c0 2.24-.112 3.598-.336 4.074-.21.448-.854.686-1.932.686-.252 0-.686-.028-1.302-.084l.28.98c.448.028.868.042 1.26.042zm-7.196-.378v-1.064h1.512v.798h.924v-7.196h-2.576c.364-.98.63-2.03.826-3.15h2.114v-.98h-4.774v.98h1.708c-.336 2.086-1.036 3.948-2.1 5.572l.504.812c.336-.476.644-.966.924-1.47v5.698h.938zm1.512-1.974h-1.512V24.4h1.512v4.564zm6.748-.616v-.952h-5.124v.952h5.124zm5.334 2.926c.812 0 1.218-.392 1.218-1.162v-4.116c.448-.168.896-.35 1.33-.546v-1.008c-.434.196-.882.392-1.33.574v-2.8h1.4v-.966h-1.4v-2.632h-1.022v2.632H90.7v.966h1.946v3.15c-.686.224-1.386.406-2.086.56l.252.952a39.481 39.481 0 001.834-.532v3.514c0 .322-.182.49-.546.49-.42 0-.868-.028-1.344-.056l.21.98h1.484zm9.268-.154c.504 0 .882-.154 1.134-.434.28-.336.462-1.274.546-2.814l-.952-.308c-.056 1.26-.154 2.016-.294 2.268-.126.21-.336.322-.616.322h-2.03c-.406 0-.602-.196-.602-.574v-4.242l4.326-.588-.154-.98-4.172.574v-3.626a19.129 19.129 0 003.626-1.106l-.476-.84c-1.736.742-3.878 1.232-6.44 1.456l.308.896a31.533 31.533 0 001.974-.224v3.584l-2.408.336.154.966 2.254-.308v4.312c0 .882.434 1.33 1.302 1.33h2.52zm6.734-9.114l.924-.35a9.482 9.482 0 00-.77-1.204h2.352v-.882h-3.752c.112-.28.238-.56.35-.868l-.966-.21a8.293 8.293 0 01-1.848 2.912l.882.56c.42-.462.784-.966 1.12-1.512h.798c.35.504.658 1.022.91 1.554zm-2.408 2.926v-1.666h9.912v1.666h.98v-2.534h-5.32a11.08 11.08 0 00-.448-1.064l.756.462c.308-.42.602-.868.854-1.344h.882c.336.448.63.924.882 1.428l.896-.336a7.375 7.375 0 00-.7-1.092h2.492v-.882h-4.046c.112-.28.21-.56.308-.854l-.966-.21a8.174 8.174 0 01-1.456 2.758l.084.056-.98.168c.154.28.294.574.434.91h-5.544v2.534h.98zm9.604 6.468v-3.598h-7.63v-.966h6.986v-2.744h-7.994v7.294h1.008v-.574h6.636v.588h.994zm-1.624-5.376h-6.006v-1.12h6.006v1.12zm.63 3.892h-6.636v-1.302h6.636v1.302z" id="f"/><path d="M73.912 107.2c1.908-.216 3.288-.672 4.128-1.392 1.788.816 3.888 1.284 6.3 1.38l.216-.828c-2.304-.072-4.296-.468-5.976-1.176.336-.48.564-1.116.708-1.908h3.864v-4.752h-3.72V97.48h4.716v-.804H73.864v.804h4.704v1.044h-3.672v4.752h3.516c-.12.624-.336 1.14-.624 1.548a10.383 10.383 0 01-1.86-1.224l-.66.456c.588.504 1.236.948 1.932 1.332-.768.552-1.992.888-3.66 1.02l.372.792zm4.656-6.672h-2.82v-1.26h2.82v1.26zm3.732 0h-2.868v-1.26H82.3v1.26zm0 1.992h-2.904l.036-.852v-.42H82.3v1.272zm-3.768 0h-2.784v-1.272h2.82v.42c0 .288-.012.576-.036.852zm12.612-4.488v-.792h-2.268a14.079 14.079 0 00-.516-1.188l-.888.144c.204.312.384.66.552 1.044h-2.292v.792h5.412zm4.128 9.204v-6.408h1.248V100h-3.876v-2.184c1.296-.072 2.46-.324 3.516-.732l-.432-.768c-1.164.504-2.472.78-3.924.804v5.136c-.06 1.824-.444 3.252-1.152 4.284l.612.648c.864-1.224 1.32-2.868 1.38-4.932v-1.428h1.776v6.408h.852zm-7.416.012c.696 0 1.044-.324 1.044-.972v-3.396h2.112v-.792H88.9v-1.344h2.316v-.78H89.86c.228-.408.432-.876.624-1.392l-.78-.264c-.18.576-.384 1.128-.624 1.656h-1.32a9.468 9.468 0 00-.636-1.632l-.768.276c.24.42.456.876.636 1.356h-1.38v.78h2.424v1.344h-2.232v.792h2.232v3.192c0 .288-.156.432-.468.432-.168 0-.348-.024-.54-.06l.18.804h.648zm2.352-1.392l.72-.276c-.192-.648-.48-1.356-.84-2.136l-.72.192c.336.72.612 1.464.84 2.22zm-4.08 1.008c.552-.9.996-1.956 1.308-3.168l-.792-.168a9.381 9.381 0 01-1.236 2.88l.72.456zm13.776.36v-8.112c.468-.804.852-1.668 1.164-2.58l-.804-.384a13.411 13.411 0 01-2.868 4.992l.276.9c.48-.504.936-1.02 1.344-1.572v6.756h.888zm7.056-.084c.324-.012.6-.192.816-.54.264-.48.468-1.212.624-2.196l-.756-.432c-.168 1.512-.408 2.28-.732 2.292-.408-.012-.852-.336-1.32-.984-.516-.696-.912-1.656-1.2-2.904a16.892 16.892 0 01-.288-1.98l3.96-.504-.132-.828-3.9.492c-.072-.972-.108-2.1-.108-3.384h-.888c.012 1.32.06 2.484.144 3.492l-2.664.348.132.828 2.604-.336c.084.888.204 1.62.36 2.22.336 1.344.84 2.436 1.524 3.276.624.756 1.236 1.14 1.824 1.14zm-.468-8.472l.6-.588a14.967 14.967 0 00-1.86-1.824l-.552.54c.768.66 1.38 1.284 1.812 1.872zm11.124 8.46c1.056 0 1.74-.228 2.076-.66.312-.456.48-2.124.48-5.028H118.9l.66-4.74h-5.16v.816h4.224l-.6 3.924h-2.544l.528-3.024-.852-.06-.648 3.888h4.848c0 1.92-.096 3.084-.288 3.492-.18.384-.732.588-1.656.588-.216 0-.588-.024-1.116-.072l.24.84c.384.024.744.036 1.08.036zm-6.168-.324v-.912h1.296v.684h.792v-6.168h-2.208c.312-.84.54-1.74.708-2.7h1.812v-.84h-4.092v.84h1.464c-.288 1.788-.888 3.384-1.8 4.776l.432.696c.288-.408.552-.828.792-1.26v4.884h.804zm1.296-1.692h-1.296V101.2h1.296v3.912zm5.784-.528v-.816h-4.392v.816h4.392z" id="g"/><path d="M43.278 21.196c1.064 0 1.988-.308 2.758-.91.826-.644 1.344-1.554 1.568-2.716h-1.106c-.196.868-.602 1.526-1.19 1.974-.56.42-1.232.63-2.03.63-1.176 0-2.058-.392-2.674-1.162-.588-.728-.868-1.722-.868-2.968s.294-2.24.882-2.996c.63-.812 1.526-1.218 2.688-1.218.784 0 1.442.182 1.988.56.56.392.924.952 1.064 1.68h1.106c-.14-.994-.588-1.792-1.344-2.38-.756-.588-1.694-.882-2.8-.882-1.54 0-2.744.518-3.584 1.582-.77.952-1.148 2.17-1.148 3.654s.364 2.688 1.12 3.612c.826 1.022 2.016 1.54 3.57 1.54zm10.276 0c1.498 0 2.688-.504 3.556-1.498.812-.952 1.232-2.17 1.232-3.682 0-1.526-.42-2.758-1.232-3.71-.868-1.008-2.058-1.498-3.542-1.498-1.512 0-2.688.504-3.556 1.512-.826.952-1.232 2.184-1.232 3.696 0 1.498.406 2.73 1.232 3.682.868.994 2.044 1.498 3.542 1.498zm0-1.022c-1.148 0-2.058-.392-2.702-1.176-.616-.756-.924-1.75-.924-2.982 0-1.246.308-2.24.924-2.996.658-.798 1.568-1.19 2.716-1.19 1.148 0 2.044.378 2.688 1.148.616.756.938 1.764.938 3.038 0 1.26-.322 2.254-.938 3.01-.644.756-1.554 1.148-2.702 1.148zM63.41 21c1.568 0 2.772-.462 3.612-1.372.798-.868 1.204-2.086 1.204-3.626 0-1.568-.378-2.786-1.12-3.626-.812-.924-2.002-1.372-3.584-1.372h-3.584V21h3.472zm-.196-.994h-2.128v-8.008h2.254c1.316 0 2.268.336 2.884 1.022.574.644.868 1.638.868 2.982 0 1.302-.322 2.296-.938 2.968-.658.686-1.638 1.036-2.94 1.036zM71.04 21v-9.996h-1.134V21h1.134zm3.248 0v-8.218h.042L80.014 21h1.176v-9.996h-1.148v8.134H80l-5.656-8.134H73.14V21h1.148zm13.398.196c.826 0 1.596-.112 2.324-.336.686-.224 1.274-.518 1.75-.91v-4.088h-4.27v.994h3.136v2.548c-.35.224-.77.42-1.26.56a5.812 5.812 0 01-1.568.224c-1.302 0-2.282-.392-2.94-1.162-.616-.728-.924-1.722-.924-2.982 0-1.288.308-2.31.952-3.066.644-.77 1.498-1.148 2.59-1.148.882 0 1.596.21 2.142.644.518.406.854.98 1.008 1.736h1.148c-.182-1.092-.616-1.918-1.316-2.492-.742-.616-1.736-.91-2.982-.91-1.47 0-2.632.518-3.486 1.568-.812.966-1.204 2.184-1.204 3.668s.406 2.702 1.218 3.64c.868 1.008 2.1 1.512 3.682 1.512zM101.812 21c1.568 0 2.772-.462 3.612-1.372.798-.868 1.204-2.086 1.204-3.626 0-1.568-.378-2.786-1.12-3.626-.812-.924-2.002-1.372-3.584-1.372H98.34V21h3.472zm-.196-.994h-2.128v-8.008h2.254c1.316 0 2.268.336 2.884 1.022.574.644.868 1.638.868 2.982 0 1.302-.322 2.296-.938 2.968-.658.686-1.638 1.036-2.94 1.036zm9.492 1.19c.938 0 1.708-.28 2.31-.812.49-.448.812-1.008.98-1.708h-1.12c-.182.504-.42.882-.728 1.134-.364.294-.854.448-1.442.448-.686 0-1.232-.224-1.624-.672-.392-.448-.602-1.078-.658-1.89h5.712c-.028-1.26-.308-2.254-.84-2.954-.588-.784-1.47-1.176-2.632-1.176-1.05 0-1.876.378-2.492 1.134-.616.714-.91 1.61-.91 2.674 0 1.176.308 2.1.952 2.8.616.672 1.456 1.022 2.492 1.022zm2.268-4.368h-4.522c.07-.714.294-1.274.686-1.694.392-.42.91-.63 1.554-.63 1.372 0 2.142.77 2.282 2.324zM118.92 21l2.744-7.238h-1.232L118.36 19.6l-2.072-5.838h-1.232l2.73 7.238h1.134zm8.176.196c1.498 0 2.688-.504 3.556-1.498.812-.952 1.232-2.17 1.232-3.682 0-1.526-.42-2.758-1.232-3.71-.868-1.008-2.058-1.498-3.542-1.498-1.512 0-2.688.504-3.556 1.512-.826.952-1.232 2.184-1.232 3.696 0 1.498.406 2.73 1.232 3.682.868.994 2.044 1.498 3.542 1.498zm0-1.022c-1.148 0-2.058-.392-2.702-1.176-.616-.756-.924-1.75-.924-2.982 0-1.246.308-2.24.924-2.996.658-.798 1.568-1.19 2.716-1.19 1.148 0 2.044.378 2.688 1.148.616.756.938 1.764.938 3.038 0 1.26-.322 2.254-.938 3.01-.644.756-1.554 1.148-2.702 1.148zm7.364 3.598v-4.088c.56 1.008 1.358 1.512 2.394 1.512s1.834-.392 2.422-1.148c.532-.7.812-1.582.812-2.646 0-1.092-.28-1.974-.826-2.674-.602-.784-1.428-1.162-2.464-1.162-1.092 0-1.89.462-2.408 1.386v-1.19h-1.05v10.01h1.12zm2.156-3.5c-.672 0-1.19-.266-1.582-.77-.42-.518-.616-1.19-.616-2.03v-.14c0-.812.182-1.484.546-1.988.392-.574.966-.854 1.694-.854.77 0 1.358.28 1.764.868.336.504.518 1.19.518 2.044 0 .868-.182 1.554-.546 2.058-.406.532-.994.812-1.778.812zm7.616.924c2.044 0 3.066-.756 3.066-2.24 0-.63-.294-1.12-.868-1.484-.378-.238-.994-.462-1.862-.672-.728-.196-1.232-.35-1.498-.476-.42-.21-.616-.476-.616-.784 0-.322.154-.574.462-.756.28-.196.672-.28 1.176-.28.574 0 1.022.112 1.33.336.28.196.462.532.56.98h1.092c-.196-1.512-1.176-2.254-2.968-2.254-.812 0-1.484.182-1.988.546-.546.364-.812.84-.812 1.456s.266 1.078.826 1.414c.336.224.938.434 1.792.644.784.196 1.302.35 1.54.462.448.224.686.532.686.938 0 .812-.658 1.232-1.946 1.232-.616 0-1.078-.112-1.386-.336-.308-.252-.518-.658-.602-1.232h-1.092c.168 1.666 1.204 2.506 3.108 2.506z" id="h"/><path d="M67.152 21.572V20.55h3.696v1.022h1.036V20.55h3.276v-.91h-3.276v-1.148h-1.036v1.148h-3.696v-1.148h-1.036v1.148H62.84v.91h3.276v1.022h1.036zm6.874 2.45l.756-.532c-.378-.504-.91-1.092-1.61-1.764l-.756.462c.686.658 1.218 1.274 1.61 1.834zM65.43 31.33c.518 0 .91-.14 1.176-.42.364-.476.546-1.33.546-2.562 0-1.694-.35-3.122-1.036-4.284.504-.448.994-.994 1.498-1.638l-.84-.518c-.378.504-.784.952-1.204 1.358a5.875 5.875 0 00-1.498-1.302l-.742.63a5.61 5.61 0 011.526 1.274 9.236 9.236 0 01-2.184 1.246l.532.84c.854-.42 1.582-.854 2.184-1.288.224.392.392.826.532 1.316-.742.84-1.764 1.568-3.052 2.156l.546.826c1.036-.532 1.946-1.176 2.702-1.946.056.392.084.812.084 1.26-.014.924-.098 1.526-.266 1.82-.14.224-.392.35-.742.35-.476 0-.938-.028-1.372-.07l.28.924c.336.014.77.028 1.33.028zm2.8.056c1.554-1.26 2.618-2.842 3.178-4.732.532 1.904 1.61 3.458 3.22 4.676l.672-.756c-1.764-1.232-2.912-2.996-3.472-5.264h3.136v-.952h-3.22c.014-.896.028-1.68.028-2.338h-1.008c0 .546-.014 1.33-.042 2.338h-2.884v.952h2.828c-.252 2.044-1.288 3.822-3.108 5.348l.672.728zm14.154.014v-2.534c.42-.098.84-.196 1.274-.308v-.994c-.42.112-.84.21-1.274.308V20.06h1.078v.784h.56c.196 2.352.812 4.522 1.848 6.51a11.776 11.776 0 01-2.828 3.22l.686.784c1.05-.826 1.946-1.834 2.702-3.01a17.39 17.39 0 002.366 3.024l.672-.77a15.003 15.003 0 01-2.506-3.178c.966-1.834 1.61-4.046 1.918-6.636v-.924h-5.418v-.756h-6.664v.952h1.106v8.666l-1.26.182.238.98a68.783 68.783 0 004.522-.798v2.31h.98zm-.98-9.17h-2.52v-2.17h2.52v2.17zm4.998 4.13c-.798-1.666-1.288-3.5-1.456-5.516h2.982c-.252 2.086-.77 3.92-1.526 5.516zm-4.998-1.078h-2.52v-2.128h2.52v2.128zm-2.52 3.29v-2.38h2.52v1.904c-.826.168-1.666.336-2.52.476zm14.504 2.856v-9.464c.546-.938.994-1.946 1.358-3.01l-.938-.448a15.647 15.647 0 01-3.346 5.824l.322 1.05a19.38 19.38 0 001.568-1.834v7.882h1.036zm8.232-.098c.378-.014.7-.224.952-.63.308-.56.546-1.414.728-2.562l-.882-.504c-.196 1.764-.476 2.66-.854 2.674-.476-.014-.994-.392-1.54-1.148-.602-.812-1.064-1.932-1.4-3.388a19.708 19.708 0 01-.336-2.31l4.62-.588-.154-.966-4.55.574a54.183 54.183 0 01-.126-3.948h-1.036c.014 1.54.07 2.898.168 4.074l-3.108.406.154.966 3.038-.392c.098 1.036.238 1.89.42 2.59.392 1.568.98 2.842 1.778 3.822.728.882 1.442 1.33 2.128 1.33zm-.546-9.884l.7-.686a17.461 17.461 0 00-2.17-2.128l-.644.63c.896.77 1.61 1.498 2.114 2.184zm12.978 9.87c1.232 0 2.03-.266 2.422-.77.364-.532.56-2.478.56-5.866h-1.484l.77-5.53h-6.02v.952h4.928l-.7 4.578h-2.968l.616-3.528-.994-.07-.756 4.536h5.656c0 2.24-.112 3.598-.336 4.074-.21.448-.854.686-1.932.686-.252 0-.686-.028-1.302-.084l.28.98c.448.028.868.042 1.26.042zm-7.196-.378v-1.064h1.512v.798h.924v-7.196h-2.576c.364-.98.63-2.03.826-3.15h2.114v-.98h-4.774v.98h1.708c-.336 2.086-1.036 3.948-2.1 5.572l.504.812c.336-.476.644-.966.924-1.47v5.698h.938zm1.512-1.974h-1.512V24.4h1.512v4.564zm6.748-.616v-.952h-5.124v.952h5.124z" id="i"/><path d="M65.388 31.428v-9.464c.546-.938.994-1.946 1.358-3.01l-.938-.448a15.647 15.647 0 01-3.346 5.824l.322 1.05a19.38 19.38 0 001.568-1.834v7.882h1.036zm8.232-.098c.378-.014.7-.224.952-.63.308-.56.546-1.414.728-2.562l-.882-.504c-.196 1.764-.476 2.66-.854 2.674-.476-.014-.994-.392-1.54-1.148-.602-.812-1.064-1.932-1.4-3.388a19.708 19.708 0 01-.336-2.31l4.62-.588-.154-.966-4.55.574a54.183 54.183 0 01-.126-3.948h-1.036c.014 1.54.07 2.898.168 4.074l-3.108.406.154.966 3.038-.392c.098 1.036.238 1.89.42 2.59.392 1.568.98 2.842 1.778 3.822.728.882 1.442 1.33 2.128 1.33zm-.546-9.884l.7-.686a17.461 17.461 0 00-2.17-2.128l-.644.63c.896.77 1.61 1.498 2.114 2.184zm12.978 9.87c1.232 0 2.03-.266 2.422-.77.364-.532.56-2.478.56-5.866H87.55l.77-5.53H82.3v.952h4.928l-.7 4.578H83.56l.616-3.528-.994-.07-.756 4.536h5.656c0 2.24-.112 3.598-.336 4.074-.21.448-.854.686-1.932.686-.252 0-.686-.028-1.302-.084l.28.98c.448.028.868.042 1.26.042zm-7.196-.378v-1.064h1.512v.798h.924v-7.196h-2.576c.364-.98.63-2.03.826-3.15h2.114v-.98h-4.774v.98h1.708c-.336 2.086-1.036 3.948-2.1 5.572l.504.812c.336-.476.644-.966.924-1.47v5.698h.938zm1.512-1.974h-1.512V24.4h1.512v4.564zm6.748-.616v-.952h-5.124v.952h5.124zm7.448 3.038c1.232-2.184 1.862-4.802 1.904-7.854h6.384v-3.556h-3.15a14.84 14.84 0 00-.532-1.484l-1.05.168c.224.392.42.84.602 1.316H95.53v3.402c-.014 3.01-.574 5.46-1.694 7.364l.728.644zm-3.514-3.738c1.148-.168 2.338-.462 3.598-.882v-.896c-.812.28-1.61.518-2.422.686.756-.952 1.736-2.562 2.912-4.83l-.882-.322c-.252.504-.504.98-.728 1.428a25.19 25.19 0 01-1.792.308c.672-1.05 1.344-2.464 2.002-4.242l-.938-.364a22.69 22.69 0 01-1.82 4.312c-.112.182-.252.308-.406.364l.252.91a41.177 41.177 0 002.226-.392c-.714 1.288-1.316 2.198-1.82 2.73-.126.112-.28.21-.462.28l.28.91zm10.878-4.984h-5.46v-1.792h5.46v1.792zm-4.592 8.75v-3.122h1.106v2.87h.742v-2.87h1.022v2.87h.742v-2.87h1.12v1.89c0 .28-.126.42-.378.42l-.56-.028.224.784h.602c.63 0 .952-.336.952-.98V24.75H96.51v6.664h.826zm1.106-3.962h-1.106v-1.834h1.106v1.834zm1.764 0h-1.022v-1.834h1.022v1.834zm1.862 0h-1.12v-1.834h1.12v1.834zm-11.186 3.15c1.246-.308 2.366-.728 3.346-1.246v-.924c-.994.504-2.156.896-3.472 1.19l.126.98zm17.094-9.016l.686-.7c-.644-.728-1.442-1.456-2.394-2.184l-.7.686c1.008.77 1.82 1.498 2.408 2.198zm1.246 2.94c1.568-.35 2.898-.812 3.99-1.372 1.036.588 2.338.994 3.934 1.204l.35-.882c-1.302-.168-2.422-.462-3.346-.882 1.064-.728 1.806-1.596 2.212-2.604v-.84h-6.706v.896h.854c.378.994.98 1.834 1.82 2.506-.98.448-2.184.826-3.584 1.134l.476.84zm4.004-2.45c-.798-.532-1.386-1.218-1.75-2.03h3.822c-.434.77-1.12 1.442-2.072 2.03zm-6.538 8.806a18.83 18.83 0 002.52-2.338l-.266-1.064a27.65 27.65 0 01-1.358 1.428v-6.062h-2.968v.966h2.002v5.53c0 .238-.112.448-.308.644l.378.896zm7.028.56v-2.408h3.514v-.952h-3.514v-1.61h2.828v-.91h-2.828v-1.288h-1.008v1.288h-2.646v.91h2.646v1.61h-3.248v.952h3.248v2.408h1.008z" id="j"/><path d="M75.146 22.832v-.854h-2.128a7.7 7.7 0 00.518-1.512h1.148v-.84h-2.968c-.14-.448-.294-.854-.434-1.204l-1.008.168c.168.322.336.672.476 1.036h-2.786v.84h1.12c.196.448.378.952.546 1.512h-2.086v.854h7.602zm-11.844.91c.462-.784.868-1.666 1.232-2.632h2.744v-.966h-2.422c.14-.448.266-.938.392-1.456l-.966-.21c-.378 1.736-.98 3.318-1.806 4.746l.826.518zm8.75-1.764H70.54a21.69 21.69 0 00-.476-1.512h2.534a6.127 6.127 0 01-.546 1.512zm-7.364 9.016c.98-.308 1.834-.714 2.59-1.218l-.182-.868c-.49.35-.98.644-1.456.868v-3.248h1.792v-.924H65.64v-1.722h1.47v-.91h-3.178v.91h.728v1.722h-1.75v.924h1.75v3.178c0 .21-.126.364-.364.448l.392.84zm2.534.476c1.162-.322 1.988-.77 2.492-1.358.434-.518.728-1.204.882-2.044h1.232v2.016c0 .77.392 1.162 1.19 1.162h1.022c.434 0 .756-.098.952-.28.224-.238.378-.882.462-1.946l-.826-.252c-.042.798-.126 1.288-.252 1.456-.098.126-.266.196-.49.196h-.602c-.35 0-.518-.182-.518-.532v-1.82h1.428v-4.396h-5.796v4.396h1.26c-.126.616-.364 1.106-.7 1.498-.434.448-1.134.812-2.086 1.064l.35.84zm6.062-5.978h-3.976V24.47h3.976v1.022zm0 1.764h-3.976v-1.022h3.976v1.022zm10.29 4.172c.308 0 .588-.014.84-.042.7-.084 1.19-.294 1.456-.602.308-.378.462-1.05.462-2.002a7.077 7.077 0 00-.252-1.54c.182-.084.364-.168.56-.252.448 1.386 1.176 2.646 2.198 3.794l.658-.826c-1.008-.98-1.708-2.1-2.1-3.36a8.277 8.277 0 001.442-1.008l-.658-.756c-.644.616-1.456 1.134-2.408 1.554-.308-.7-.77-1.344-1.372-1.96l.014-.014H88.6v-3.052h-2.604c.364-.35.728-.756 1.092-1.232v-.658h-3.514c.196-.238.378-.49.574-.77l-1.036-.238a9.85 9.85 0 01-3.374 3.01l.616.756c.168-.112.336-.224.532-.336v2.52h2.296c-.728.686-1.75 1.176-3.08 1.456l.378.84c1.372-.308 2.492-.854 3.332-1.624.196.224.392.462.56.714-1.008.868-2.436 1.582-4.284 2.142l.49.826c1.764-.588 3.164-1.358 4.2-2.282a7 7 0 01.336.868c-1.204 1.12-2.884 2.044-5.068 2.744l.504.868c1.96-.7 3.542-1.61 4.746-2.702.014.168.028.336.028.518 0 .672-.098 1.12-.266 1.344-.196.224-.448.336-.756.364-.28.014-.616.028-1.022.028l.294.91zm-4.382-.042v-9.688c.42-.868.784-1.792 1.064-2.758l-.938-.448c-.588 2.156-1.512 4.074-2.8 5.74l.322 1.064c.476-.574.924-1.176 1.33-1.792v7.882h1.022zm5.53-10.024h-3.094c.42-.336.84-.7 1.246-1.106h3.038c-.392.392-.784.77-1.19 1.106zm2.898 2.226h-2.702c.196-.42.364-.896.476-1.4h2.226v1.4zm-3.766 0h-1.988v-1.4h2.548a4.888 4.888 0 01-.56 1.4zm16.772 7.686c1.162 0 1.82-.574 1.988-1.708.14-1.12.224-4.116.224-8.96h-4.914c.168-.616.308-1.26.42-1.932l-.994-.126c-.322 1.988-.924 3.668-1.792 5.04l.644.84c.56-.84 1.036-1.806 1.428-2.884h4.256c-.014 4.34-.084 6.916-.21 7.728-.126.728-.532 1.106-1.204 1.106-.448 0-.966-.028-1.582-.056l.224.91c.714.028 1.218.042 1.512.042zm-6.804.07V24.26c.392.504.868 1.176 1.414 1.988l.56-.854a36.744 36.744 0 00-1.974-2.24v-.882h1.722v-.966h-1.722v-2.73h-.994v2.73h-2.03v.966h1.96c-.448 1.764-1.19 3.346-2.24 4.732l.434 1.092c.784-1.162 1.4-2.45 1.876-3.878v7.126h.994zm6.412-2.562l.882-.392a29.527 29.527 0 00-1.26-3.514l-.84.294c.196.476.406 1.008.602 1.596-.672.168-1.442.336-2.282.504.406-.742.952-2.044 1.638-3.906l-.882-.322c-.994 2.8-1.68 4.298-2.072 4.508l.182.826c1.372-.28 2.604-.56 3.668-.854.112.392.238.812.364 1.26zm13.006.868v-1.386h3.682v-.854h-3.682v-1.162h3.276v-.826h-3.276v-1.12h2.996v-1.96h.938v-.84h-.938v-1.946h-2.996v-1.022h-.98v1.022h-2.45v.84h2.45v1.106h-3.136v.84h3.136v1.12h-2.45v.84h2.45v1.12h-2.744v.826h2.744v1.162h-3.178v.854h3.178v1.386h.98zm-7.77 1.624a7.413 7.413 0 001.652-1.722c.14.14.294.266.476.406 1.092.728 2.898 1.092 5.418 1.092h4.144l.168-.966c-1.624.042-3.206.07-4.746.07-1.904-.028-3.346-.294-4.298-.826a3.094 3.094 0 01-.686-.56c.672-1.288 1.05-2.856 1.106-4.704v-.602h-2.198a33.643 33.643 0 002.072-3.346v-.826h-3.43v.952h2.296a25.96 25.96 0 01-2.24 3.36v.784h2.59c-.084 1.33-.364 2.492-.84 3.486-.364-.616-.7-1.428-.98-2.422l-.84.308c.336 1.204.784 2.198 1.33 2.982a6.967 6.967 0 01-1.652 1.68l.658.854zm9.786-9.772h-2.016v-1.106h2.016v1.106zm0 1.96h-2.016v-1.12h2.016v1.12z" id="k"/><path d="M63.414 31.4c.91-1.848 1.386-4.312 1.442-7.392v-3.122H75.23v-.98h-5.124a10.871 10.871 0 00-.742-1.456l-1.106.196c.28.392.532.812.756 1.26H63.82v4.102c-.028 2.842-.448 5.054-1.232 6.65l.826.742zm6.272-3.738l.966-.224c-.392-1.988-.826-3.766-1.302-5.306l-.882.28c.504 1.68.91 3.43 1.218 5.25zm5.32 3.136v-.98h-2.954c.868-2.072 1.582-4.452 2.17-7.112l-.994-.266c-.644 2.94-1.4 5.39-2.268 7.378h-5.838v.98h9.884zm-7.798-2.296l.952-.238c-.448-1.932-.952-3.654-1.512-5.138l-.882.28a38.967 38.967 0 011.442 5.096zm10.15 2.772c.896-1.176 1.414-2.66 1.568-4.452h3.612v4.102h1.036v-4.102h3.808v2.436c0 .588-.266.882-.77.882-.476 0-.994-.028-1.554-.056l.266.994h1.61c.98 0 1.47-.49 1.47-1.47V19.122h-10.43v6.72c-.028 1.918-.49 3.5-1.386 4.746l.77.686zm10.024-8.764h-3.808v-2.408h3.808v2.408zm-4.844 0h-3.556v-2.408h3.556v2.408zm0 3.388h-3.556v-2.45h3.556v2.45zm4.844 0h-3.808v-2.45h3.808v2.45zM97.63 20.9v-.98h-2.856a22.31 22.31 0 00-.462-1.442l-1.036.182c.182.378.35.798.518 1.26H90.98v.98h6.65zm1.722 10.472V20.074h2.506a39.23 39.23 0 01-1.372 3.934c1.092 1.344 1.652 2.422 1.666 3.248-.014.504-.084.84-.224 1.022-.14.168-.462.266-.966.294-.266 0-.588-.028-.98-.056l.322 1.064c1.148 0 1.918-.182 2.31-.518.364-.336.546-.938.546-1.806-.014-.84-.546-1.932-1.596-3.248.504-1.26.966-2.632 1.4-4.102v-.756h-4.592v12.222h.98zm-1.624-6.622v-.98h-1.694c.364-.63.686-1.344.98-2.142l-.938-.322c-.28.868-.63 1.694-1.036 2.464h-1.47a13.684 13.684 0 00-.938-2.352l-.924.336c.35.616.644 1.288.896 2.016h-1.89v.98h7.014zm-5.222 6.552v-.784h3.584v.784h.994v-5.278h-5.572v5.278h.994zm3.584-1.736h-3.584v-2.59h3.584v2.59zm12.404 1.932v-.63h5.95v.63h.994V26.36h-4.928a21.473 21.473 0 002.296-1.022h4.396v-.868h-2.954a13.687 13.687 0 002.254-1.918l-.826-.434c-.798.896-1.75 1.68-2.842 2.352h-1.792v-1.008h2.982v-.812h-2.982v-.91h4.886v-2.66h-9.912v2.66h4.046v.91h-3.668v.812h3.668v1.008h-5.194v.868h6.272c-1.806.77-3.92 1.288-6.356 1.54l.546.84c.742-.14 1.47-.28 2.17-.448v4.228h.994zm6.468-10.5h-2.058v-1.162h2.058v1.162zm-2.968 0h-2.016v-1.162h2.016v1.162zm-2.926 0h-2.086v-1.162h2.086v1.162zm5.376 7.224h-5.95v-1.078h5.95v1.078zm0 1.82h-5.95v-1.05h5.95v1.05z" id="l"/><path d="M40.254 13.3v-1.624h9.492v1.554h.98v-2.492h-5.082a12.321 12.321 0 00-.476-1.246l-1.078.182c.168.322.336.672.504 1.064h-5.32V13.3h.98zm-.644 2.282c1.736-.784 3.192-1.694 4.382-2.73l-.672-.602c-1.176.98-2.604 1.82-4.312 2.548l.602.784zm10.584-.028l.7-.686c-1.148-.868-2.576-1.736-4.256-2.604l-.644.63c1.778.938 3.178 1.82 4.2 2.66zm-8.246 6.86v-.588h6.258v.588h.966v-4.578c.476.224.994.448 1.554.672l.546-.826c-2.772-1.064-4.732-2.296-5.866-3.71h-.77c-1.4 1.54-3.374 2.772-5.936 3.724l.532.826a20.856 20.856 0 001.736-.742v4.634h.98zm7.07-4.648h-8.022c1.554-.77 2.898-1.736 4.018-2.912.952 1.092 2.296 2.072 4.004 2.912zm-.812 3.136h-6.258v-2.24h6.258v2.24zm10.024-7.406v-3.402h-4.27v3.402h4.27zm5.908 0v-3.402h-4.354v3.402h4.354zm-6.832-.854H54.87v-1.68h2.436v1.68zm5.922 0h-2.52v-1.68h2.52v1.68zm-8.19 9.772v-.602h2.394v.602h.896v-4.41h-3.514c1.316-.588 2.366-1.316 3.15-2.212h2.366c.7.854 1.736 1.596 3.08 2.212h-3.738v4.41h.896v-.602h2.618v.602h.896v-4.116c.308.112.63.238.98.35l.406-.854c-1.806-.49-3.164-1.162-4.074-2.002h3.78v-.896h-1.932a8.635 8.635 0 00-.77-1.232l-.854.28c.224.28.434.602.63.952h-3.612c.196-.336.378-.672.518-1.036l-.966-.098c-.168.392-.378.77-.644 1.134h-4.718v.896h3.864c-.98.84-2.352 1.526-4.144 2.058l.462.826c.392-.126.77-.252 1.148-.392v4.13h.882zm2.394-1.47h-2.394v-2.1h2.394v2.1zm5.754 0h-2.618v-2.1h2.618v2.1zm15.96-7.112v-.854h-2.128a7.7 7.7 0 00.518-1.512h1.148v-.84h-2.968c-.14-.448-.294-.854-.434-1.204l-1.008.168c.168.322.336.672.476 1.036h-2.786v.84h1.12c.196.448.378.952.546 1.512h-2.086v.854h7.602zm-11.844.91c.462-.784.868-1.666 1.232-2.632h2.744v-.966h-2.422c.14-.448.266-.938.392-1.456l-.966-.21c-.378 1.736-.98 3.318-1.806 4.746l.826.518zm8.75-1.764H74.54a21.69 21.69 0 00-.476-1.512h2.534a6.127 6.127 0 01-.546 1.512zm-7.364 9.016c.98-.308 1.834-.714 2.59-1.218l-.182-.868c-.49.35-.98.644-1.456.868v-3.248h1.792v-.924H69.64v-1.722h1.47v-.91h-3.178v.91h.728v1.722h-1.75v.924h1.75v3.178c0 .21-.126.364-.364.448l.392.84zm2.534.476c1.162-.322 1.988-.77 2.492-1.358.434-.518.728-1.204.882-2.044h1.232v2.016c0 .77.392 1.162 1.19 1.162h1.022c.434 0 .756-.098.952-.28.224-.238.378-.882.462-1.946l-.826-.252c-.042.798-.126 1.288-.252 1.456-.098.126-.266.196-.49.196h-.602c-.35 0-.518-.182-.518-.532v-1.82h1.428v-4.396h-5.796v4.396h1.26c-.126.616-.364 1.106-.7 1.498-.434.448-1.134.812-2.086 1.064l.35.84zm6.062-5.978h-3.976V15.47h3.976v1.022zm0 1.764h-3.976v-1.022h3.976v1.022zm10.29 4.172c.308 0 .588-.014.84-.042.7-.084 1.19-.294 1.456-.602.308-.378.462-1.05.462-2.002a7.077 7.077 0 00-.252-1.54c.182-.084.364-.168.56-.252.448 1.386 1.176 2.646 2.198 3.794l.658-.826c-1.008-.98-1.708-2.1-2.1-3.36a8.277 8.277 0 001.442-1.008l-.658-.756c-.644.616-1.456 1.134-2.408 1.554-.308-.7-.77-1.344-1.372-1.96l.014-.014H92.6v-3.052h-2.604c.364-.35.728-.756 1.092-1.232v-.658h-3.514c.196-.238.378-.49.574-.77l-1.036-.238a9.85 9.85 0 01-3.374 3.01l.616.756c.168-.112.336-.224.532-.336v2.52h2.296c-.728.686-1.75 1.176-3.08 1.456l.378.84c1.372-.308 2.492-.854 3.332-1.624.196.224.392.462.56.714-1.008.868-2.436 1.582-4.284 2.142l.49.826c1.764-.588 3.164-1.358 4.2-2.282a7 7 0 01.336.868c-1.204 1.12-2.884 2.044-5.068 2.744l.504.868c1.96-.7 3.542-1.61 4.746-2.702.014.168.028.336.028.518 0 .672-.098 1.12-.266 1.344-.196.224-.448.336-.756.364-.28.014-.616.028-1.022.028l.294.91zm-4.382-.042v-9.688c.42-.868.784-1.792 1.064-2.758l-.938-.448c-.588 2.156-1.512 4.074-2.8 5.74l.322 1.064c.476-.574.924-1.176 1.33-1.792v7.882h1.022zm5.53-10.024h-3.094c.42-.336.84-.7 1.246-1.106h3.038c-.392.392-.784.77-1.19 1.106zm2.898 2.226h-2.702c.196-.42.364-.896.476-1.4h2.226v1.4zm-3.766 0h-1.988v-1.4h2.548a4.888 4.888 0 01-.56 1.4zm14 7.826v-6.202h.336a8.784 8.784 0 001.806 3.696 6.882 6.882 0 01-2.03 1.652l.532.812a7.47 7.47 0 002.17-1.736c.644.63 1.4 1.204 2.296 1.722l.504-.854a10.95 10.95 0 01-2.226-1.652c.644-1.008 1.106-2.24 1.372-3.682v-.854h-4.76v-4.242h3.738c-.028 1.064-.084 1.75-.182 2.058-.084.21-.21.35-.378.406a3.14 3.14 0 01-.742.07c-.392 0-.7-.014-.938-.014l.266.868h1.134c.882 0 1.4-.294 1.568-.868.168-.56.252-1.708.252-3.444h-5.67v12.264h.952zm-6.314.014c.574-1.26.91-2.87.994-4.83h2.268v3.164c0 .504-.182.756-.532.756-.336 0-.686-.028-1.078-.056l.238.896h1.12c.784 0 1.176-.434 1.176-1.274v-10.92h-4.088v6.72c-.014 1.96-.294 3.584-.854 4.844l.756.7zm3.262-8.988h-2.254v-2.366h2.254v2.366zm0 3.248h-2.254V14.35h2.254v2.338zm5.768 2.436a7.731 7.731 0 01-1.512-2.912h2.66c-.252 1.106-.63 2.072-1.148 2.912zm4.494-2.674c2.268-.35 4.27-.924 5.978-1.708 1.736.868 3.71 1.428 5.922 1.68l.462-.938c-1.946-.196-3.71-.63-5.292-1.302 1.288-.728 2.38-1.61 3.276-2.646v-.812h-6.104a8.38 8.38 0 00.532-1.064l-1.022-.14c-.588 1.4-1.736 2.576-3.416 3.542l.616.812a11.836 11.836 0 001.75-1.302c.672.588 1.4 1.12 2.184 1.582-1.54.616-3.318 1.064-5.348 1.344l.462.952zm5.964-2.786a13.209 13.209 0 01-2.59-1.764l.182-.224h5.348a12.588 12.588 0 01-2.94 1.988zm-5.614 8.764c2.576-.812 4.214-1.862 4.928-3.122.182-.336.336-.686.448-1.05h4.144c-.042 1.4-.168 2.268-.378 2.604-.224.336-.742.518-1.582.532l-1.652-.07.252.91c.644.028 1.19.056 1.638.056.994 0 1.694-.238 2.1-.7.406-.462.616-1.876.644-4.242h-4.928c.084-.504.14-1.036.14-1.596h-.994a7.34 7.34 0 01-.168 1.596h-4.452v.91h4.172c-.112.28-.266.546-.434.798-.728 1.022-2.254 1.876-4.55 2.548l.672.826zM131.562 21v-9.002h3.528v-.994h-8.19v.994h3.528V21h1.134zm9.044.196c1.064 0 1.988-.308 2.758-.91.826-.644 1.344-1.554 1.568-2.716h-1.106c-.196.868-.602 1.526-1.19 1.974-.56.42-1.232.63-2.03.63-1.176 0-2.058-.392-2.674-1.162-.588-.728-.868-1.722-.868-2.968s.294-2.24.882-2.996c.63-.812 1.526-1.218 2.688-1.218.784 0 1.442.182 1.988.56.56.392.924.952 1.064 1.68h1.106c-.14-.994-.588-1.792-1.344-2.38-.756-.588-1.694-.882-2.8-.882-1.54 0-2.744.518-3.584 1.582-.77.952-1.148 2.17-1.148 3.654s.364 2.688 1.12 3.612c.826 1.022 2.016 1.54 3.57 1.54zm7.07-.196v-4.298h3.024c.63 0 1.106.112 1.442.364.364.252.574.686.63 1.274l.126 1.33c.042.56.182.994.406 1.33h1.246c-.294-.364-.476-.854-.532-1.47l-.154-1.54c-.112-1.008-.644-1.61-1.596-1.82v-.028c.574-.14 1.022-.42 1.358-.868a2.49 2.49 0 00.462-1.484c0-.924-.308-1.624-.896-2.1-.574-.462-1.358-.686-2.352-.686h-4.312V21h1.148zm3.024-5.292h-3.024v-3.71h3.024c.77 0 1.344.154 1.708.462.336.294.518.756.518 1.372 0 .588-.182 1.036-.532 1.358-.392.336-.966.518-1.694.518z" id="m"/><path d="M75.146 22.832v-.854h-2.128a7.7 7.7 0 00.518-1.512h1.148v-.84h-2.968c-.14-.448-.294-.854-.434-1.204l-1.008.168c.168.322.336.672.476 1.036h-2.786v.84h1.12c.196.448.378.952.546 1.512h-2.086v.854h7.602zm-11.844.91c.462-.784.868-1.666 1.232-2.632h2.744v-.966h-2.422c.14-.448.266-.938.392-1.456l-.966-.21c-.378 1.736-.98 3.318-1.806 4.746l.826.518zm8.75-1.764H70.54a21.69 21.69 0 00-.476-1.512h2.534a6.127 6.127 0 01-.546 1.512zm-7.364 9.016c.98-.308 1.834-.714 2.59-1.218l-.182-.868c-.49.35-.98.644-1.456.868v-3.248h1.792v-.924H65.64v-1.722h1.47v-.91h-3.178v.91h.728v1.722h-1.75v.924h1.75v3.178c0 .21-.126.364-.364.448l.392.84zm2.534.476c1.162-.322 1.988-.77 2.492-1.358.434-.518.728-1.204.882-2.044h1.232v2.016c0 .77.392 1.162 1.19 1.162h1.022c.434 0 .756-.098.952-.28.224-.238.378-.882.462-1.946l-.826-.252c-.042.798-.126 1.288-.252 1.456-.098.126-.266.196-.49.196h-.602c-.35 0-.518-.182-.518-.532v-1.82h1.428v-4.396h-5.796v4.396h1.26c-.126.616-.364 1.106-.7 1.498-.434.448-1.134.812-2.086 1.064l.35.84zm6.062-5.978h-3.976V24.47h3.976v1.022zm0 1.764h-3.976v-1.022h3.976v1.022zm10.29 4.172c.308 0 .588-.014.84-.042.7-.084 1.19-.294 1.456-.602.308-.378.462-1.05.462-2.002a7.077 7.077 0 00-.252-1.54c.182-.084.364-.168.56-.252.448 1.386 1.176 2.646 2.198 3.794l.658-.826c-1.008-.98-1.708-2.1-2.1-3.36a8.277 8.277 0 001.442-1.008l-.658-.756c-.644.616-1.456 1.134-2.408 1.554-.308-.7-.77-1.344-1.372-1.96l.014-.014H88.6v-3.052h-2.604c.364-.35.728-.756 1.092-1.232v-.658h-3.514c.196-.238.378-.49.574-.77l-1.036-.238a9.85 9.85 0 01-3.374 3.01l.616.756c.168-.112.336-.224.532-.336v2.52h2.296c-.728.686-1.75 1.176-3.08 1.456l.378.84c1.372-.308 2.492-.854 3.332-1.624.196.224.392.462.56.714-1.008.868-2.436 1.582-4.284 2.142l.49.826c1.764-.588 3.164-1.358 4.2-2.282a7 7 0 01.336.868c-1.204 1.12-2.884 2.044-5.068 2.744l.504.868c1.96-.7 3.542-1.61 4.746-2.702.014.168.028.336.028.518 0 .672-.098 1.12-.266 1.344-.196.224-.448.336-.756.364-.28.014-.616.028-1.022.028l.294.91zm-4.382-.042v-9.688c.42-.868.784-1.792 1.064-2.758l-.938-.448c-.588 2.156-1.512 4.074-2.8 5.74l.322 1.064c.476-.574.924-1.176 1.33-1.792v7.882h1.022zm5.53-10.024h-3.094c.42-.336.84-.7 1.246-1.106h3.038c-.392.392-.784.77-1.19 1.106zm2.898 2.226h-2.702c.196-.42.364-.896.476-1.4h2.226v1.4zm-3.766 0h-1.988v-1.4h2.548a4.888 4.888 0 01-.56 1.4zm9.814 7.826v-7.126a16.153 16.153 0 001.918-3.318h7.546v-.98h-7.168c.154-.448.294-.896.434-1.358l-1.022-.126c-.14.504-.308.994-.49 1.484h-3.808v.98h3.402c-.91 1.974-2.212 3.71-3.92 5.208l.63.798a21.415 21.415 0 001.498-1.484v5.922h.98zm4.914-.056c.826 0 1.246-.42 1.246-1.246v-2.646h3.5V26.5h-3.5v-.882a20.06 20.06 0 002.562-2.002v-.938h-6.552v.938h5.264a14.475 14.475 0 01-2.282 1.582V26.5h-4.06v.966h4.06v2.324c0 .42-.224.644-.644.644-.574 0-1.106-.014-1.61-.028l.266.952h1.75zm8.274.056v-9.716c.364-.854.686-1.764.938-2.716l-.91-.42c-.49 2.072-1.288 3.906-2.394 5.516l.336 1.078c.378-.504.728-1.022 1.05-1.554v7.812h.98zm6.174-.042v-.588h2.618v.588h.952v-6.244h-2.856c.434-.392.854-.84 1.246-1.316h2.296v-.924h-1.61a17.523 17.523 0 001.652-3.15l-.84-.434a32.302 32.302 0 01-.798 1.722V20.2h-1.582v-1.61h-.91v1.61h-1.68v.882h1.68v1.806h-1.988v.924h2.548a10.145 10.145 0 01-3.178 2.282l.504.798c.336-.168.672-.336 1.008-.532v5.012h.938zm-2.968-9.422l.742-.742c-.56-.7-1.246-1.386-2.058-2.086l-.686.672c.84.756 1.512 1.484 2.002 2.156zm4.466.938h-.42v-1.806h1.554c-.35.644-.728 1.246-1.134 1.806zm-5.432 8.022a19.04 19.04 0 002.24-2.366l-.238-.994a41.7 41.7 0 01-1.148 1.302v-5.936h-2.534v.938h1.568v5.586c0 .196-.098.378-.294.546l.406.924zm6.552-3.388h-2.618V26.01h2.618v1.512zm0 2.38h-2.618v-1.54h2.618v1.54z" id="n"/><path d="M74.81 22.944v-3.01h-5.208a13.516 13.516 0 00-.63-1.484l-1.12.196c.238.392.448.812.644 1.288h-5.32v2.996h1.036v-2.016h9.562v2.03h1.036zm-.63 8.442l.672-.882a44.164 44.164 0 00-4.396-2.184c.742-.868 1.4-2.03 1.974-3.514h2.758v-.98H67.95c.336-.616.686-1.274 1.05-1.974l-1.036-.308a72.485 72.485 0 01-1.204 2.282h-3.92v.98h3.374c-.448.77-.924 1.554-1.428 2.338 1.302.42 2.604.91 3.92 1.47-1.484 1.134-3.43 1.708-5.81 1.722l.588.938c2.604-.084 4.676-.812 6.244-2.212a48.41 48.41 0 014.452 2.324zM69.476 27.9a30.326 30.326 0 00-3.248-1.162c.364-.56.756-1.204 1.176-1.932h3.92c-.476 1.232-1.092 2.268-1.848 3.094zm7.518-3.976c2.478-1.246 4.48-2.716 6.006-4.41 1.652 1.778 3.626 3.22 5.95 4.34l.504-.896a19.901 19.901 0 01-6.09-4.354h-.728c-1.624 1.764-3.668 3.248-6.132 4.438l.49.882zm11.844 7.056v-.994h-5.32v-2.59h4.046v-.966h-4.046v-2.436h3.388v-.966h-7.812v.966h3.388v2.436h-4.06v.966h4.06v2.59h-5.306v.994h11.662zm3.668.266c.784 0 1.19-.406 1.19-1.204V25.94c.56-.21 1.106-.434 1.666-.686v-.994c-.546.266-1.106.504-1.666.728v-2.884h1.526v-.966h-1.526v-2.562h-1.022v2.562H90.77v.966h1.904v3.234c-.672.224-1.372.406-2.072.56l.238.952c.616-.168 1.218-.35 1.834-.546v3.486c0 .35-.182.532-.518.532s-.686-.028-1.05-.056l.224.98h1.176zm10.234-.154V19.654h-6.944v.98h5.922v3.724h-5.572v.966h5.572v3.92h-6.23v.994h6.23v.854h1.022zm3.584.126c.784 0 1.19-.406 1.19-1.204v-4.13c.518-.238 1.036-.49 1.554-.77v-1.008c-.504.28-1.022.546-1.554.784v-2.8h1.358v-.98h-1.358v-2.562h-1.008v2.562h-1.764v.98h1.764v3.206a21.32 21.32 0 01-2.03.644l.252 1.008c.588-.196 1.19-.406 1.778-.63v3.444c0 .364-.182.56-.532.56-.364 0-.756-.028-1.148-.07l.21.966h1.288zm9.156-8.526v-1.568h1.848v-.938h-1.848V18.59h-.952v1.596h-2.436V18.59h-.952v1.596h-1.848v.938h1.848v1.554h.952v-1.554h2.436v1.568h.952zm-4.662 8.68v-.588h5.026v.588h.98v-8.05h-6.986v8.05h.98zm2.058-4.746h-2.058V24.26h2.058v2.366zm2.968 0H113.8V24.26h2.044v2.366zm-2.968 3.22h-2.058v-2.31h2.058v2.31zm2.968 0H113.8v-2.31h2.044v2.31z" id="o"/><path d="M64.394 31.386V20.088h9.212v9.66c0 .42-.182.63-.532.63l-1.82-.042.28 1.008h1.862c.812 0 1.218-.462 1.218-1.372V19.108H63.386v12.278h1.008zm8.204-8.75v-.938h-7.182v.938h7.182zm-.784 6.02v-4.508H66.2v4.508h5.614zm-.98-.896H67.18v-2.702h3.654v2.702zm12.824.574v-4.228h5.558v-.98h-5.628v-1.932h4.242v-.966h-4.242v-1.694h-1.022v4.592h-2.618v-3.5h-1.022v3.5h-2.142v.98h5.866v4.228h1.008zm-5.894.448a13.755 13.755 0 003.094-3.402l-.714-.644a13.463 13.463 0 01-3.01 3.234l.63.812zm.154 2.674c4.984-.014 8.372-1.96 10.136-5.838l-.924-.49c-1.54 3.57-4.732 5.362-9.576 5.362l.364.966zm24.752-6.874l.672-.798c-2.086-1.246-3.528-2.954-4.34-5.11l-.868.49c.854 2.212 2.366 4.018 4.536 5.418zm-11.508.056c1.162-.784 2.1-1.582 2.8-2.394.658-.742 1.316-1.694 1.974-2.856l-.882-.532a14.785 14.785 0 01-1.848 2.758 10.111 10.111 0 01-2.59 2.142l.546.882zm.756 6.804c1.428-.798 2.506-1.694 3.22-2.702.602-.896 1.064-2.114 1.4-3.64h3.486c-.07 2.184-.224 3.598-.476 4.27-.238.644-.728.966-1.484.966-.728 0-1.498-.014-2.31-.042l.28.994h2.548c.7-.042 1.204-.266 1.512-.672.322-.42.546-1.176.686-2.24.14-1.078.224-2.492.266-4.242h-8.358v.966h2.828c-.294 1.316-.728 2.38-1.316 3.192-.658.84-1.638 1.61-2.926 2.31l.644.84zm16.044 0c1.694-.658 3.122-1.386 4.27-2.198 1.176.77 2.66 1.484 4.452 2.142l.518-.938c-1.624-.56-3.01-1.176-4.144-1.848 1.148-.98 1.904-2.072 2.282-3.276v-.868h-5.726a21.31 21.31 0 00.532-1.596h6.818v-.966h-6.552c.252-1.036.476-2.128.658-3.304l-1.022-.126a30.994 30.994 0 01-.672 3.43h-2.45l.798-2.758-.994-.168-1.106 3.892h3.472c-.98 3.122-2.478 5.572-4.522 7.364l.518.924c1.596-1.302 2.912-3.052 3.934-5.264.462.98 1.232 1.89 2.324 2.73-1.05.686-2.352 1.316-3.92 1.89l.532.938zm7.252-9.842l.714-.714c-.672-.77-1.498-1.54-2.506-2.31l-.672.658c1.05.84 1.876 1.624 2.464 2.366zm-3.038 6.426c-1.12-.812-1.918-1.694-2.394-2.646h4.536c-.392.952-1.106 1.834-2.142 2.646z" id="p"/><path d="M40.254 13.3v-1.624h9.492v1.554h.98v-2.492h-5.082a12.321 12.321 0 00-.476-1.246l-1.078.182c.168.322.336.672.504 1.064h-5.32V13.3h.98zm-.644 2.282c1.736-.784 3.192-1.694 4.382-2.73l-.672-.602c-1.176.98-2.604 1.82-4.312 2.548l.602.784zm10.584-.028l.7-.686c-1.148-.868-2.576-1.736-4.256-2.604l-.644.63c1.778.938 3.178 1.82 4.2 2.66zm-8.246 6.86v-.588h6.258v.588h.966v-4.578c.476.224.994.448 1.554.672l.546-.826c-2.772-1.064-4.732-2.296-5.866-3.71h-.77c-1.4 1.54-3.374 2.772-5.936 3.724l.532.826a20.856 20.856 0 001.736-.742v4.634h.98zm7.07-4.648h-8.022c1.554-.77 2.898-1.736 4.018-2.912.952 1.092 2.296 2.072 4.004 2.912zm-.812 3.136h-6.258v-2.24h6.258v2.24zm10.024-7.406v-3.402h-4.27v3.402h4.27zm5.908 0v-3.402h-4.354v3.402h4.354zm-6.832-.854H54.87v-1.68h2.436v1.68zm5.922 0h-2.52v-1.68h2.52v1.68zm-8.19 9.772v-.602h2.394v.602h.896v-4.41h-3.514c1.316-.588 2.366-1.316 3.15-2.212h2.366c.7.854 1.736 1.596 3.08 2.212h-3.738v4.41h.896v-.602h2.618v.602h.896v-4.116c.308.112.63.238.98.35l.406-.854c-1.806-.49-3.164-1.162-4.074-2.002h3.78v-.896h-1.932a8.635 8.635 0 00-.77-1.232l-.854.28c.224.28.434.602.63.952h-3.612c.196-.336.378-.672.518-1.036l-.966-.098c-.168.392-.378.77-.644 1.134h-4.718v.896h3.864c-.98.84-2.352 1.526-4.144 2.058l.462.826c.392-.126.77-.252 1.148-.392v4.13h.882zm2.394-1.47h-2.394v-2.1h2.394v2.1zm5.754 0h-2.618v-2.1h2.618v2.1zm10.668 1.47v-6.202h.336a8.784 8.784 0 001.806 3.696 6.882 6.882 0 01-2.03 1.652l.532.812a7.47 7.47 0 002.17-1.736c.644.63 1.4 1.204 2.296 1.722l.504-.854a10.95 10.95 0 01-2.226-1.652c.644-1.008 1.106-2.24 1.372-3.682v-.854h-4.76v-4.242h3.738c-.028 1.064-.084 1.75-.182 2.058-.084.21-.21.35-.378.406a3.14 3.14 0 01-.742.07c-.392 0-.7-.014-.938-.014l.266.868h1.134c.882 0 1.4-.294 1.568-.868.168-.56.252-1.708.252-3.444h-5.67v12.264h.952zm-6.314.014c.574-1.26.91-2.87.994-4.83h2.268v3.164c0 .504-.182.756-.532.756-.336 0-.686-.028-1.078-.056l.238.896h1.12c.784 0 1.176-.434 1.176-1.274v-10.92h-4.088v6.72c-.014 1.96-.294 3.584-.854 4.844l.756.7zm3.262-8.988h-2.254v-2.366h2.254v2.366zm0 3.248h-2.254V14.35h2.254v2.338zm5.768 2.436a7.731 7.731 0 01-1.512-2.912h2.66c-.252 1.106-.63 2.072-1.148 2.912zm4.494-2.674c2.268-.35 4.27-.924 5.978-1.708 1.736.868 3.71 1.428 5.922 1.68l.462-.938c-1.946-.196-3.71-.63-5.292-1.302 1.288-.728 2.38-1.61 3.276-2.646v-.812h-6.104a8.38 8.38 0 00.532-1.064l-1.022-.14c-.588 1.4-1.736 2.576-3.416 3.542l.616.812a11.836 11.836 0 001.75-1.302c.672.588 1.4 1.12 2.184 1.582-1.54.616-3.318 1.064-5.348 1.344l.462.952zm5.964-2.786a13.209 13.209 0 01-2.59-1.764l.182-.224h5.348a12.588 12.588 0 01-2.94 1.988zm-5.614 8.764c2.576-.812 4.214-1.862 4.928-3.122.182-.336.336-.686.448-1.05h4.144c-.042 1.4-.168 2.268-.378 2.604-.224.336-.742.518-1.582.532l-1.652-.07.252.91c.644.028 1.19.056 1.638.056.994 0 1.694-.238 2.1-.7.406-.462.616-1.876.644-4.242h-4.928c.084-.504.14-1.036.14-1.596h-.994a7.34 7.34 0 01-.168 1.596h-4.452v.91h4.172c-.112.28-.266.546-.434.798-.728 1.022-2.254 1.876-4.55 2.548l.672.826zM103.562 21v-9.002h3.528v-.994H98.9v.994h3.528V21h1.134zm5.922 0v-3.5l1.554-1.47 4.41 4.97h1.54l-5.152-5.712 4.522-4.284h-1.498l-5.376 5.194v-5.194h-1.148V21h1.148zm15.834 0v-.994h-6.174v-3.668h5.6v-.994h-5.6v-3.346h5.936v-.994h-7.084V21h7.322z" id="q"/><path d="M65.668 31.386v-7.014c.42.532.91 1.232 1.484 2.114l.574-.854a31.776 31.776 0 00-2.058-2.338v-1.078h1.624v-.966h-1.624v-2.646h-.994v2.646h-1.708v.966h1.708c-.434 1.764-1.148 3.346-2.156 4.718l.434 1.092a16.535 16.535 0 001.722-3.612v6.972h.994zm9.002-11.032v-.952h-6.384v.952h6.384zm-3.934 10.892c.812 0 1.232-.42 1.232-1.246v-6.23h3.43v-.966h-7.854v.966h3.416v5.978c0 .406-.196.616-.574.616-.406 0-.826-.028-1.274-.056l.196.938h1.428zm3.738-.91l.91-.406a42.205 42.205 0 00-1.512-5.068l-.91.294c.546 1.512 1.05 3.234 1.512 5.18zm-6.692-.126c.84-1.428 1.498-3.108 1.946-5.068l-.924-.21c-.392 1.736-1.022 3.304-1.89 4.718l.868.56zm14.448 1.204v-.77h7.112v-.938h-3.248V27.62h2.688v-.938h-2.688v-1.918h2.66v-.938h-2.66v-1.918h2.954v-.952h-3.15l.378-.14a20.99 20.99 0 00-.77-2.38l-.966.28c.322.714.588 1.456.812 2.24H82.37c.294-.714.546-1.456.756-2.226l-.966-.196a15.596 15.596 0 01-2.576 5.446l.336 1.064c.476-.602.924-1.232 1.33-1.89v8.26h.98zm-3.318-8.624l.84-.574c-.504-.91-1.246-1.974-2.198-3.192l-.854.532c.938 1.19 1.68 2.268 2.212 3.234zm6.216 1.036H82.23v-1.918h2.898v1.918zm0 2.856H82.23v-1.918h2.898v1.918zm-7.462 4.62a58.772 58.772 0 002.156-5.824l-.91-.364a54.49 54.49 0 01-2.198 5.782l.952.406zm7.462-1.596H82.23V27.62h2.898v2.086zm17.5-3.724v-.854H97.91v-.994h3.934v-.784H97.91v-.924h3.934v-.784H97.91v-.952h4.452v-.84H97.84a14.623 14.623 0 00-.56-1.372l-1.036.168c.224.364.42.77.616 1.204h-3.024c.168-.35.336-.714.476-1.092l-.938-.238a10.645 10.645 0 01-2.786 3.948l.574.784c.42-.392.812-.784 1.176-1.204v3.934h10.29zm-5.712-4.34h-3.64v-.84l.07-.112h3.57v.952zm0 1.708h-3.64v-.924h3.64v.924zm0 1.778h-3.64v-.994h3.64v.994zm.63 6.286v-3.416h.266c.98 1.246 2.618 2.254 4.942 3.038l.434-.896c-1.974-.532-3.444-1.246-4.396-2.142h4.242v-.91h-5.488v-.728h-1.008v.728h-5.572v.91h4.312c-.812.826-2.296 1.568-4.452 2.226l.532.868c2.394-.868 4.032-1.904 4.914-3.094h.266v3.416h1.008zm17.178-.028v-3.22h2.632V27.2h-2.632v-2.03h2.03v-.938h-2.03v-2.03h2.324v-.966h-1.554c.364-.714.7-1.512.994-2.408l-.952-.336a20.63 20.63 0 01-1.05 2.744h-1.582l.84-.406a20.873 20.873 0 00-1.204-2.24l-.854.406c.406.658.798 1.4 1.19 2.24h-1.652v.966h2.506v2.03h-2.17v.938h2.17v2.03h-2.604v.966h2.604v3.22h.994zm-7.406-.07v-.84h2.212v.812h.896v-4.984h-3.668c.154-.42.294-.868.42-1.358h2.87v-2.45h.784V21.6h-.784v-2.492h-4.802v.868h1.61c-.014.56-.042 1.092-.07 1.624h-1.96v.896h1.876c-.056.546-.14 1.078-.238 1.582h-1.302v.868h1.092c-.378 1.442-.952 2.59-1.722 3.458l.532.84c.532-.588.98-1.302 1.358-2.114v4.186h.896zm1.806-9.716h-1.428c.028-.518.056-1.064.07-1.624h1.358V21.6zm0 2.478h-1.75c.084-.504.168-1.022.238-1.582h1.512v1.582zm.406 5.502h-2.212v-2.352h2.212v2.352z" id="r"/><path d="M71.8 31.428V28.74h3.598v-.938H71.8v-1.358h2.982V20.83h-1.82c.392-.588.742-1.274 1.05-2.03l-.966-.336c-.308.826-.658 1.61-1.078 2.366h-4.074v5.614h2.926v1.358h-3.542v.938h3.542v2.688h.98zM69.77 20.76l.868-.378a11.526 11.526 0 00-1.092-1.834l-.924.294c.42.56.812 1.19 1.148 1.918zm-5.334 10.528c1.246-.056 1.96-.476 2.142-1.288.14-.728.224-2.282.224-4.634H63.82l.238-2.268h2.632V19.15h-3.738v.882h2.758v2.184h-2.548l-.364 4.032h3.052c0 1.68-.07 2.8-.21 3.332-.126.504-.602.77-1.428.77-.35 0-.686-.028-1.022-.056l.252.938c.336.028.672.056.994.056zm6.384-8.05h-2.03v-1.554h2.03v1.554zm3.052 0H71.8v-1.554h2.072v1.554zm0 2.352H71.8v-1.512h2.072v1.512zm-3.052 0h-2.03v-1.512h2.03v1.512zm8.75 5.754v-12.74h-1.022v12.74h1.022zm9.814-.364V30h-3.416v-3.416h2.842v-.994h-2.842v-3.388h3.052v-.966h-3.052v-2.618h-1.036v2.618H82.93c.084-.532.14-1.092.168-1.68l-.91-.126a12.378 12.378 0 01-.826 3.906 15.504 15.504 0 00-.812-2.366l-.742.238c.322.784.588 1.61.798 2.464l.7-.182c-.126.28-.266.574-.42.882l.742.672c.49-.868.868-1.82 1.12-2.842h2.184v3.388h-3.206v.994h3.206V30h-4.004v.98h8.456zm-12.026-5.656c.28-1.26.448-2.604.476-4.004l-.798-.056a18.518 18.518 0 01-.504 3.822l.826.238zm25.27.658v-.854H97.91v-.994h3.934v-.784H97.91v-.924h3.934v-.784H97.91v-.952h4.452v-.84H97.84a14.623 14.623 0 00-.56-1.372l-1.036.168c.224.364.42.77.616 1.204h-3.024c.168-.35.336-.714.476-1.092l-.938-.238a10.645 10.645 0 01-2.786 3.948l.574.784c.42-.392.812-.784 1.176-1.204v3.934h10.29zm-5.712-4.34h-3.64v-.84l.07-.112h3.57v.952zm0 1.708h-3.64v-.924h3.64v.924zm0 1.778h-3.64v-.994h3.64v.994zm.63 6.286v-3.416h.266c.98 1.246 2.618 2.254 4.942 3.038l.434-.896c-1.974-.532-3.444-1.246-4.396-2.142h4.242v-.91h-5.488v-.728h-1.008v.728h-5.572v.91h4.312c-.812.826-2.296 1.568-4.452 2.226l.532.868c2.394-.868 4.032-1.904 4.914-3.094h.266v3.416h1.008zm17.178-.028v-3.22h2.632V27.2h-2.632v-2.03h2.03v-.938h-2.03v-2.03h2.324v-.966h-1.554c.364-.714.7-1.512.994-2.408l-.952-.336a20.63 20.63 0 01-1.05 2.744h-1.582l.84-.406a20.873 20.873 0 00-1.204-2.24l-.854.406c.406.658.798 1.4 1.19 2.24h-1.652v.966h2.506v2.03h-2.17v.938h2.17v2.03h-2.604v.966h2.604v3.22h.994zm-7.406-.07v-.84h2.212v.812h.896v-4.984h-3.668c.154-.42.294-.868.42-1.358h2.87v-2.45h.784V21.6h-.784v-2.492h-4.802v.868h1.61c-.014.56-.042 1.092-.07 1.624h-1.96v.896h1.876c-.056.546-.14 1.078-.238 1.582h-1.302v.868h1.092c-.378 1.442-.952 2.59-1.722 3.458l.532.84c.532-.588.98-1.302 1.358-2.114v4.186h.896zm1.806-9.716h-1.428c.028-.518.056-1.064.07-1.624h1.358V21.6zm0 2.478h-1.75c.084-.504.168-1.022.238-1.582h1.512v1.582zm.406 5.502h-2.212v-2.352h2.212v2.352z" id="s"/><path d="M67.432 28.978c2.002-1.54 3.066-3.948 3.206-7.21h3.052c-.042 2.786-.168 4.508-.364 5.152-.224.672-.756 1.008-1.596 1.022-.266 0-.602-.028-1.008-.056l.266.952c.378.028.7.042.98.042.994 0 1.694-.392 2.1-1.148.392-.756.602-3.066.63-6.93h-4.046v-2.226H69.63v2.226h-2.66v.966h2.646c-.112 2.968-1.092 5.152-2.954 6.524l.77.686zm-2.044-7.294l.728-.742c-.644-.714-1.442-1.428-2.394-2.156l-.7.658c1.008.798 1.792 1.54 2.366 2.24zm-1.876 9.772c.784-1.316 1.358-1.96 1.694-1.96.182 0 .378.112.574.35.448.504.966.854 1.554 1.022.574.154 1.344.238 2.296.252.938.014 1.806.028 2.604.028h2.954l.252-1.022c-.336.028-.826.042-1.456.056-.644 0-1.26.014-1.876.014-1.148 0-2.114-.014-2.884-.028-.868-.028-1.54-.126-1.988-.308-.406-.196-.784-.49-1.148-.882a2.403 2.403 0 00-.364-.322v-5.264h-2.982v.98h2.016V28.6c-.588.252-1.246.98-2.002 2.17l.756.686zm21.056-.14c.84 0 1.386-.196 1.624-.574.21-.35.322-.98.322-1.876a5.593 5.593 0 00-.35-1.89c.196-.084.392-.182.602-.294.476 1.666 1.162 2.94 2.058 3.836l.686-.784c-.896-.728-1.582-1.876-2.072-3.472.476-.35.938-.77 1.372-1.246l-.616-.602c-.756.784-1.54 1.386-2.38 1.778a6.041 6.041 0 00-1.148-1.484c.294-.238.546-.49.77-.756h3.752v-.882h-2.254l1.176-3.192v-.406h-4.004l.35-.84-.966-.154-1.484 3.738h4.27l-.322.854h-4.676v.882h3.066c-.616.56-1.694 1.078-3.248 1.554l.49.798a14.071 14.071 0 002.38-1.106c.196.196.392.42.56.658-.938.784-2.058 1.386-3.374 1.82l.504.728c1.232-.448 2.338-1.078 3.29-1.904.14.28.266.588.378.924-1.246 1.078-2.744 1.904-4.494 2.492l.56.798a12.937 12.937 0 004.116-2.422l.042.574c0 .658-.084 1.092-.224 1.316-.112.182-.406.28-.882.294h-.966l.322.84h.77zm-7.476-3.388c1.176-.196 2.408-.574 3.696-1.134v-.896c-.812.35-1.638.63-2.45.84.756-1.064 1.722-2.8 2.884-5.208l-.882-.322c-.28.616-.56 1.204-.826 1.764-.588.126-1.162.238-1.722.322.672-1.092 1.344-2.562 2.002-4.396l-.966-.378c-.504 1.68-1.092 3.15-1.792 4.438-.126.196-.28.336-.448.42l.266.98c.728-.14 1.456-.28 2.184-.448-.686 1.302-1.274 2.226-1.75 2.772-.126.112-.28.21-.476.294l.28.952zm9.478-6.496h-3.262l.462-1.148h3.22l-.42 1.148zm-9.828 9.352c1.54-.336 2.912-.756 4.116-1.26v-.952c-1.204.518-2.618.924-4.242 1.232l.126.98zm25.886-4.802v-.854H97.91v-.994h3.934v-.784H97.91v-.924h3.934v-.784H97.91v-.952h4.452v-.84H97.84a14.623 14.623 0 00-.56-1.372l-1.036.168c.224.364.42.77.616 1.204h-3.024c.168-.35.336-.714.476-1.092l-.938-.238a10.645 10.645 0 01-2.786 3.948l.574.784c.42-.392.812-.784 1.176-1.204v3.934h10.29zm-5.712-4.34h-3.64v-.84l.07-.112h3.57v.952zm0 1.708h-3.64v-.924h3.64v.924zm0 1.778h-3.64v-.994h3.64v.994zm.63 6.286v-3.416h.266c.98 1.246 2.618 2.254 4.942 3.038l.434-.896c-1.974-.532-3.444-1.246-4.396-2.142h4.242v-.91h-5.488v-.728h-1.008v.728h-5.572v.91h4.312c-.812.826-2.296 1.568-4.452 2.226l.532.868c2.394-.868 4.032-1.904 4.914-3.094h.266v3.416h1.008zm17.178-.028v-3.22h2.632V27.2h-2.632v-2.03h2.03v-.938h-2.03v-2.03h2.324v-.966h-1.554c.364-.714.7-1.512.994-2.408l-.952-.336a20.63 20.63 0 01-1.05 2.744h-1.582l.84-.406a20.873 20.873 0 00-1.204-2.24l-.854.406c.406.658.798 1.4 1.19 2.24h-1.652v.966h2.506v2.03h-2.17v.938h2.17v2.03h-2.604v.966h2.604v3.22h.994zm-7.406-.07v-.84h2.212v.812h.896v-4.984h-3.668c.154-.42.294-.868.42-1.358h2.87v-2.45h.784V21.6h-.784v-2.492h-4.802v.868h1.61c-.014.56-.042 1.092-.07 1.624h-1.96v.896h1.876c-.056.546-.14 1.078-.238 1.582h-1.302v.868h1.092c-.378 1.442-.952 2.59-1.722 3.458l.532.84c.532-.588.98-1.302 1.358-2.114v4.186h.896zm1.806-9.716h-1.428c.028-.518.056-1.064.07-1.624h1.358V21.6zm0 2.478h-1.75c.084-.504.168-1.022.238-1.582h1.512v1.582zm.406 5.502h-2.212v-2.352h2.212v2.352z" id="t"/></defs><g fill="none" fill-rule="evenodd"><path stroke="#888" d="M142.5 185h88"/><path fill="#888" d="M225.5 189.5l6-4.5-6-4.5z"/><g fill-rule="nonzero" transform="translate(142 163)"><use fill="#000" xlink:href="#a"/><use fill="#878787" xlink:href="#a"/></g><path stroke="#888" d="M416.5 185h87"/><path fill="#888" d="M498.5 189.5l6-4.5-6-4.5z"/><g fill-rule="nonzero" transform="translate(416 162.5)"><use fill="#000" xlink:href="#b"/><use fill="#878787" xlink:href="#b"/></g><path stroke="#888" d="M416.5 319.5h454M870 295.5v12.117h0V319.5"/><path fill="#888" d="M874.5 296l-4.5-6-4.5 6z"/><g fill-rule="nonzero" transform="translate(416 290)"><use fill="#000" xlink:href="#c"/><use fill="#878787" xlink:href="#c"/></g><g><path stroke="#888" d="M689.5 185h87"/><path fill="#888" d="M771.5 189.5l6-4.5-6-4.5z"/><g fill-rule="nonzero" transform="translate(689 162.5)"><use fill="#000" xlink:href="#d"/><use fill="#878787" xlink:href="#d"/></g></g><g><path fill="#BBB" fill-rule="nonzero" opacity=".6" d="M3 3h138v50H3z"/><path stroke="#E5E5E5" fill="#FFF" fill-rule="nonzero" d="M1 1h138v50H1z"/><g fill-rule="nonzero" fill="#00A4FF"><path d="M33 15.13a4 4 0 110 8 4 4 0 010-8m0-2a6 6 0 100 12 6 6 0 000-12zM37 29.13a6 6 0 016 6v1H23v-1a6 6 0 016-6h8m0-2h-8a8 8 0 00-8 8v3h24v-3a8 8 0 00-8-8zM46 27.12h-3a10.06 10.06 0 012 2h1a4 4 0 014 4v1h-3v2h5v-3a6 6 0 00-6-6zM42 14.12a4.94 4.94 0 00-2.33.6 8 8 0 01.88 1.79 3 3 0 110 5.22 8 8 0 01-.88 1.79 4.94 4.94 0 002.33.6 5 5 0 000-10z"/></g><g fill-rule="nonzero" transform="translate(1 1)"><use fill="#000" xlink:href="#e"/><use fill="#444" xlink:href="#e"/></g><g fill-rule="nonzero"><path fill="#BBB" opacity=".6" d="M3 160h138v50H3z"/><path stroke="#E5E5E5" fill="#FFF" d="M1 158h138v50H1z"/><path d="M35.6 186H35c-5.5 0-10-1.3-10-3v-6.2c2.1 1.3 5.8 2.2 10 2.2s7.9-.9 10-2.2v4.5c.7.2 1.4.5 2 .8V174c0-2.8-5.4-5-12-5s-12 2.2-12 5v18h2v-6.2c2 1.3 5.3 2.1 9.2 2.2.3-.3.7-.6 1.1-.9 0-.4.2-.7.3-1.1zm-.6-15c5.5 0 10 1.3 10 3s-4.5 3-10 3-10-1.3-10-3 4.5-3 10-3zm-10 21h-2c0 2.5 4.4 4.6 10.2 4.9-.4-.6-.7-1.3-1-2.1-4.1-.3-7.2-1.4-7.2-2.8zm23-2.9v-.1c0-2.8-2.2-5-5-5s-5 2.2-5 5v.1c-1.7.4-3 2-3 3.9 0 2.2 1.8 4 4 4h8c2.2 0 4-1.8 4-4 0-1.9-1.3-3.4-3-3.9zm-1 5.9h-8c-1.1 0-2-.9-2-2 0-.9.6-1.7 1.5-1.9l1.5-.4v-1.6-.2c0-1.6 1.4-2.9 3-2.9s2.9 1.3 3 2.9v1.8l1.5.4c.9.2 1.5 1 1.5 1.9 0 1.1-.9 2-2 2z" fill="#00A4FF"/><g transform="translate(1 158)"><use fill="#000" xlink:href="#f"/><use fill="#444" xlink:href="#f"/></g></g><g><path stroke="#888" d="M69.5 55.5v49.98h0v49.02"/><path fill="#888" d="M65 149.5l4.5 6 4.5-6z"/></g><g fill-rule="nonzero" transform="translate(1 1)"><use fill="#000" xlink:href="#g"/><use fill="#878787" xlink:href="#g"/></g></g><g><path fill="#EAEBEC" fill-rule="nonzero" d="M234 1h180v365H234z"/><g fill-rule="nonzero"><path d="M260.977 14.777l.019.13c.12 1.286 1.132 2.475 2.638 3.1 2.994.997 5.636 3.186 7.303 5.87l.145.241.058-.041c.426-.29.913-.468 1.434-.504l.196-.007.182.006c1.747.11 3.048 1.793 3.048 3.766 0 1.974-1.301 3.657-3.048 3.767l-.182.006-.17-.007-.049.245c-.997 4.53-5.943 7.534-12.21 7.648L260 39c-6.426-.009-11.535-3.038-12.55-7.65l-.05-.246-.17.007c-1.775 0-3.136-1.618-3.224-3.57l-.005-.203c0-2.04 1.392-3.772 3.23-3.772.594 0 1.151.185 1.63.51l.057.042.146-.241c1.601-2.58 4.097-4.7 6.9-5.728l.337-.118c1.572-.65 2.584-1.837 2.704-3.124.11-1.164 1.75-1.208 1.973-.13zm-.979 2.872l-.143.187c-.646.804-1.536 1.478-2.606 1.96l-.25.108c-3.026 1.008-5.668 3.49-6.958 6.385a1 1 0 01-1.744.152l-.065-.113c-.244-.491-.626-.762-1.002-.762-.625 0-1.23.752-1.23 1.772 0 1.021.604 1.773 1.23 1.773a.845.845 0 00.37-.087l.12-.068a1 1 0 011.547.815c.09 4.186 4.585 7.22 10.732 7.229 6.149-.008 10.645-3.043 10.734-7.229a1 1 0 011.448-.873l.1.058a.883.883 0 00.49.155c.625 0 1.229-.752 1.229-1.773 0-.964-.54-1.688-1.126-1.765l-.104-.007-.113.008c-.3.043-.595.256-.812.613l-.077.14a1 1 0 01-1.809-.038c-1.29-2.895-3.932-5.377-7.023-6.41-1.148-.474-2.11-1.183-2.798-2.046l-.14-.184zm3.73 6.351c2.152 0 4.132.935 5.292 2.486.402.556.704 1.4.87 2.232l.053.288.036.291.014.183c.004.09.007.167.007.246 0 3.667-4.267 6.172-9.69 6.271l-.31.002c-5.467-.007-9.836-2.444-9.995-6.066l-.004-.286.02-.35.02-.183.023-.15.047-.253c.165-.824.468-1.67.88-2.239 1.15-1.537 3.129-2.472 5.28-2.472 1.34 0 2.617.361 3.674 1.016l.054.036.056-.036a6.943 6.943 0 013.365-1.01l.308-.006zm0 2c-1.186 0-2.287.388-3.089 1.054a1 1 0 01-1.278 0c-.802-.666-1.903-1.054-3.09-1.054-1.537 0-2.918.652-3.67 1.657-.206.285-.417.887-.535 1.477l-.042.245-.02.207-.004.14c0 2.28 3.244 4.183 7.703 4.27L260 34l.298-.003c4.36-.086 7.557-1.907 7.697-4.12l.005-.15-.009-.21-.026-.214-.034-.184c-.115-.576-.325-1.175-.523-1.449-.761-1.018-2.142-1.67-3.68-1.67z" fill="#00A4FF"/><g transform="translate(244 11)"><use fill="#000" xlink:href="#h"/><use fill="#444" xlink:href="#h"/></g></g><path stroke="#888" d="M322.5 117.5v10.097h0v9.903"/><path fill="#888" d="M318 131.5l4.5 6 4.5-6z"/><path stroke="#888" d="M322.5 194.5v10.097h0v9.903"/><path fill="#888" d="M318 208.5l4.5 6 4.5-6z"/><g fill-rule="nonzero"><path fill="#BBB" opacity=".6" d="M256 65h138v50H256z"/><path stroke="#E5E5E5" fill="#FFF" d="M254 63h138v50H254z"/><path d="M283.414 87.89l3.305 3.415-1.438 1.39-4.695-4.851 4.719-4.563 1.39 1.438-3.28 3.172zm9.172 3.415l3.304-3.414-3.281-3.172 1.39-1.438 4.72 4.563-4.696 4.851-1.437-1.39zm-2.459-7.247l1.897.634-2.726 8.157-1.897-.634 2.726-8.157zM276 101h-2V75h9v2h-7v22h7v2h-7zm28 0h-7v-2h7V77h-7v-2h9v26h-2z" fill="#00A4FF"/><g transform="translate(254 63)"><use fill="#000" xlink:href="#i"/><use fill="#444" xlink:href="#i"/></g></g><g fill-rule="nonzero"><path fill="#BBB" opacity=".6" d="M256 142h138v50H256z"/><path stroke="#E5E5E5" fill="#FFF" d="M254 140h138v50H254z"/><path d="M277 169v2h26v-2h-26zm0-2h26v-13h-26v13zm14 9h9v2h-20v-2h9v-3h-14v-21h30v21h-14v3zm-5.193-12.907l-1.414 1.414-3.807-3.807 3.807-3.807 1.414 1.414-2.393 2.393 2.393 2.393zm8.386-4.786l1.414-1.414 3.807 3.807-3.807 3.807-1.414-1.414 2.393-2.393-2.393-2.393zm-1.91-2.683l1.634 1.152-6.2 8.8-1.634-1.152 6.2-8.8z" fill="#00A4FF"/><g transform="translate(254 140)"><use fill="#000" xlink:href="#j"/><use fill="#444" xlink:href="#j"/></g></g><path stroke="#888" d="M322.5 271.5v10.097h0v9.903"/><path fill="#888" d="M318 285.5l4.5 6 4.5-6z"/><g><path fill="#BBB" fill-rule="nonzero" opacity=".6" d="M256 219h138v50H256z"/><path stroke="#E5E5E5" fill="#FFF" fill-rule="nonzero" d="M254 217h138v50H254z"/><g stroke="#00A4FF" stroke-width="2"><path d="M290 227.152l-9.91 5.662 9.91 5.721 9.908-5.72zM293 243.733v11.402l10-5.715v-11.462zM277 249.42l10 5.715v-11.402l-10-5.775z"/></g><g fill-rule="nonzero" transform="translate(254 217)"><use fill="#000" xlink:href="#k"/><use fill="#444" xlink:href="#k"/></g></g><g fill-rule="nonzero"><path fill="#BBB" opacity=".6" d="M256 296h138v50H256z"/><path stroke="#E5E5E5" fill="#FFF" d="M254 294h138v50H254z"/><g fill="#00A4FF"><path d="M289.533 306c4.844 0 9.034 3.228 10.287 7.761l.04.152.269.067c2.292.599 3.995 1.848 4.96 3.796l.122.258.184.42.02.05c.09.214.163.416.222.614.069.235.116.457.134.673l.009.213-2-.008c0-.06-.02-.169-.061-.31a3.776 3.776 0 00-.093-.27l-.141-.344-.099-.22c-.728-1.623-2.14-2.617-4.24-3.048l-.29-.056-.68-.12-.13-.676c-.771-4.013-4.341-6.952-8.513-6.952-4.788 0-8.666 3.837-8.666 8.565l.002.212.008.21.035.707-.655.268a5.22 5.22 0 00-3.257 4.82c0 2.88 2.028 5.101 4.766 5.214l.218.004v2c-3.979 0-6.984-3.183-6.984-7.217a7.212 7.212 0 013.784-6.332l.084-.045.003-.127c.15-5.61 4.714-10.126 10.374-10.275l.288-.004z"/><path d="M306 322h-22v10h22v-10zm-2 2v6h-18v-6h18z"/><path d="M294 326h8v2h-8zM288 326h2v2h-2z"/></g><g transform="translate(254 294)"><use fill="#000" xlink:href="#l"/><use fill="#444" xlink:href="#l"/></g></g></g><g><path fill="#EAEBEC" fill-rule="nonzero" d="M507 1h180v288H507z"/><g fill-rule="nonzero"><g fill="#00A4FF"><path d="M533 11c7.8 0 14.3 5.6 15.7 13h-2c-1.4-6.3-7-11-13.7-11-7.7 0-14 6.3-14 14s6.3 14 14 14c7.1 0 12.9-5.2 13.9-12h2c-1 7.9-7.7 14-15.9 14-8.8 0-16-7.2-16-16s7.2-16 16-16z"/><path d="M533 28v7h-7v-7h7zm9 0v7h-7v-7h7zm-11 2h-3v3h3v-3zm9 0h-3v3h3v-3zm-7-12v8h-7v-8h7zm-2 2h-3v4h3v-4zM537 21.2l2.4 2.8H537v-2.8m-.1-3.2H535v8h7v-2l-5.1-6z"/></g><g transform="translate(517 11)"><use fill="#000" xlink:href="#m"/><use fill="#444" xlink:href="#m"/></g></g><path stroke="#888" d="M595.5 117.5v10.097h0v9.903"/><path fill="#888" d="M591 131.5l4.5 6 4.5-6z"/><path stroke="#888" d="M595.5 194.5v10.097h0v9.903"/><path fill="#888" d="M591 208.5l4.5 6 4.5-6z"/><g fill-rule="nonzero"><path fill="#BBB" opacity=".6" d="M529 65h138v50H529z"/><path stroke="#E5E5E5" fill="#FFF" d="M527 63h138v50H527z"/><path d="M551 97v-6.2c1.8 1.1 4.7 1.9 8.1 2.2v-2c-4.6-.3-8.1-1.5-8.1-2.9v-6.3c2.1 1.3 5.8 2.2 10 2.2s7.9-.9 10-2.2v3.7l2 .9V79c0-2.8-5.4-5-12-5s-12 2.2-12 5v18c0 2.8 5.4 5 12 5 .6 0 1.1 0 1.7-.1l-3.6-2c-4.6-.2-8.1-1.4-8.1-2.9zm10.1-21c5.6 0 10 1.3 10 3s-4.9 3-10 3c-5.5 0-10-1.3-10-3s4.4-3 10-3zM577 91.5V91l-8-4-8 3.9v2.3l8 3.9 8-4v-1.6zm-8 3.4l-5.7-2.8 5.7-2.8 5.7 2.8-5.7 2.8zm0 4.8l-8-3.7v2.3l8 3.7 8-4v-2.3l-8 4z" fill="#00A4FF"/><g transform="translate(527 63)"><use fill="#000" xlink:href="#n"/><use fill="#444" xlink:href="#n"/></g></g><g fill-rule="nonzero"><path fill="#BBB" opacity=".6" d="M529 142h138v50H529z"/><path stroke="#E5E5E5" fill="#FFF" d="M527 140h138v50H527z"/><g fill="#00A4FF"><path d="M576 151h-26v15.2s.1 10.8 13 13.8c12.9-3 13-13.8 13-13.8V157h-2v9.2a11.583 11.583 0 01-1.4 4.8c-1.8 3.4-5.1 5.7-9.6 6.9-10.7-2.6-11-11.3-11-11.7V153h24v-2z"/><path d="M558 158v3h-2v-5h5v2h-3zm12 0v3h-2v-3h-3v-2h5v2zm-14 10v-3h2v3h3v2h-5v-2zm14 2h-5v-2h3v-3h2v5zm-11-8h8v2h-8v-2z"/></g><g transform="translate(527 140)"><use fill="#000" xlink:href="#o"/><use fill="#444" xlink:href="#o"/></g></g><g fill-rule="nonzero"><path fill="#BBB" opacity=".6" d="M529 219h138v50H529z"/><path stroke="#E5E5E5" fill="#FFF" d="M527 217h138v50H527z"/><g fill="#00A4FF"><path d="M570.083 243.668c.739 2.036.65 3.89-.437 4.977-.622.622-1.497.917-2.512.917-2.172 0-4.993-1.351-7.388-3.746a15.58 15.58 0 01-1.967-2.392c.247-.655.61-1.365 1.084-2.088.554 1.052 1.347 2.116 2.298 3.067 2.333 2.332 4.676 3.16 5.974 3.16.349 0 .823-.058 1.097-.332.3-.3.398-.917.284-1.683a15.17 15.17 0 001.567-1.88zm-1.036-2.119c-.323.59-.748 1.21-1.268 1.83-.557-1.1-1.38-2.222-2.376-3.219-2.332-2.332-4.675-3.16-5.973-3.16-.35 0-.824.057-1.098.332-.305.305-.402.933-.28 1.714a15.163 15.163 0 00-1.45 2.166c-.867-2.16-.827-4.152.316-5.295.622-.622 1.497-.917 2.512-.917 2.172-.001 4.992 1.35 7.388 3.746a15.355 15.355 0 012.229 2.803z"/><path d="M567.134 235c1.016 0 1.89.295 2.512.917 1.953 1.952.687 6.384-2.828 9.899-2.395 2.395-5.216 3.746-7.388 3.746-1.016 0-1.89-.295-2.512-.917-1.953-1.952-.687-6.384 2.828-9.899 2.395-2.395 5.216-3.746 7.388-3.746zm0 2c-1.298 0-3.641.827-5.974 3.16-1.443 1.443-2.52 3.145-2.956 4.671-.312 1.09-.263 2.01.127 2.4.274.274.748.332 1.097.332 1.298 0 3.642-.828 5.974-3.16 1.443-1.443 2.52-3.145 2.956-4.671.312-1.09.263-2.01-.127-2.4-.274-.274-.748-.332-1.097-.332z"/><path d="M578.72 239h-2.042c-1.373-6.29-6.976-11-13.678-11-7.732 0-14 6.268-14 14s6.268 14 14 14c7.053 0 12.887-5.215 13.858-12h2.018c-.984 7.893-7.717 14-15.876 14-8.837 0-16-7.163-16-16s7.163-16 16-16c7.811 0 14.315 5.598 15.72 13z"/></g><g transform="translate(527 217)"><use fill="#000" xlink:href="#p"/><use fill="#444" xlink:href="#p"/></g></g></g><g><path fill="#EAEBEC" fill-rule="nonzero" d="M780 1h180v288H780z"/><g fill-rule="nonzero"><g fill="#00A4FF"><path d="M821.72 24h-2.042c-1.373-6.29-6.976-11-13.678-11-7.732 0-14 6.268-14 14s6.268 14 14 14c7.053 0 12.887-5.215 13.858-12h2.018c-.984 7.893-7.717 14-15.876 14-8.837 0-16-7.163-16-16s7.163-16 16-16c7.811 0 14.315 5.598 15.72 13z"/><path d="M803 25v-3.382l-3 1.89V25h3zm2 0v2h-7v-4.511l.913-.573 4.086-2.629L805 18l.001 1.1V25zM803 30v3.382l-3-1.89V30h3zm2 0v-2h-7v4.511l.913.573 4.086 2.629L805 37l.001-1.1V30zM809 25v-3.382l3 1.89V25h-3zm-2 0v2h7v-4.511l-.913-.573-4.086-2.629L807 18v1.1L807 20.359V25zM809 30v3.382l3-1.89V30h-3zm-2 0v-2h7v4.511l-.913.573-4.086 2.629L807 37v-1.1L807 34.641V30z"/></g><g transform="translate(790 11)"><use fill="#000" xlink:href="#q"/><use fill="#444" xlink:href="#q"/></g></g><g fill-rule="nonzero"><path fill="#BBB" opacity=".6" d="M802 65h138v50H802z"/><path stroke="#E5E5E5" fill="#FFF" d="M800 63h138v50H800z"/><g fill="#00A4FF"><path d="M851.72 85h-2.042c-1.373-6.29-6.976-11-13.678-11-7.732 0-14 6.268-14 14s6.268 14 14 14c7.053 0 12.887-5.215 13.858-12h2.018c-.984 7.893-7.717 14-15.876 14-8.837 0-16-7.163-16-16s7.163-16 16-16c7.811 0 14.315 5.598 15.72 13z"/><path d="M828 86.16v-2.57l7.789-4.59L844 83.838v2.323h-16zm2.97-2h9.638l-4.82-2.839-4.818 2.84zM828 90v2.571l7.789 4.59L844 92.322V90h-16zm2.97 2h9.638l-4.82 2.84L830.97 92zM828 87h16v2h-16z"/></g><g transform="translate(800 63)"><use fill="#000" xlink:href="#r"/><use fill="#444" xlink:href="#r"/></g></g><g fill-rule="nonzero"><path fill="#BBB" opacity=".6" d="M802 142h138v50H802z"/><path stroke="#E5E5E5" fill="#FFF" d="M800 140h138v50H800z"/><g fill="#00A4FF"><path d="M842.995 164.895v-4.285L840.07 159l-2.143 1.218 2.625 1.425-5.057 2.787-5.057-2.787 2.593-1.425-2.143-1.218-2.893 1.61v4.285l2.143 1.239v-2.282l4.286 2.364v3.82l-2.143-1.166v2.374l3.214 1.756 3.215-1.766v-2.364l-2.143 1.177v-3.82l4.285-2.365v2.282z"/><path d="M851.714 162h-2.041c-1.373-6.29-6.976-11-13.678-11-7.732 0-14 6.268-14 14 0 7.731 6.268 14 14 14 7.053 0 12.888-5.216 13.858-12h2.018c-.984 7.892-7.717 14-15.876 14-8.837 0-16-7.164-16-16 0-8.837 7.163-16 16-16 7.811 0 14.315 5.597 15.72 13z"/></g><g transform="translate(800 140)"><use fill="#000" xlink:href="#s"/><use fill="#444" xlink:href="#s"/></g></g><path fill="#BBB" fill-rule="nonzero" opacity=".6" d="M802 219h138v50H802z"/><path stroke="#E5E5E5" fill="#FFF" fill-rule="nonzero" d="M800 217h138v50H800z"/><g transform="translate(820 226)"><path d="M29.965 17h2.004C31.453 25.37 24.501 32 16 32 7.163 32 0 24.837 0 16S7.163 0 16 0c7.811 0 14.315 5.597 15.72 13h-2.042C28.304 6.71 22.702 2 16 2 8.268 2 2 8.268 2 16s6.268 14 14 14c7.396 0 13.452-5.735 13.965-13z" fill="#00A4FF" fill-rule="nonzero"/><path d="M10.635 21.897A2 2 0 0012 20.01a5.644 5.644 0 004 1.663 5.67 5.67 0 004.53-2.27c-.066.19-.101.394-.101.607 0 .773.469 1.434 1.132 1.7A7.9 7.9 0 0116 24a7.892 7.892 0 01-5.365-2.103zm-2.14-3.214A8.259 8.259 0 018 15.856c0-3.752 2.491-6.91 5.881-7.856-.107.27-.167.565-.167.875 0 .55.188 1.055.5 1.453-2.28.763-3.928 2.95-3.928 5.528 0 .812.163 1.585.458 2.287a1.995 1.995 0 00-2.25.54zm14.993.046a1.76 1.76 0 00-2.483-.063c.452-.833.71-1.791.71-2.81 0-2.578-1.648-4.765-3.93-5.528.313-.398.5-.904.5-1.453 0-.31-.059-.605-.166-.875 3.39.945 5.881 4.104 5.881 7.856 0 1.011-.181 1.98-.512 2.873z" fill="#00A4FF" fill-rule="nonzero"/><circle stroke="#00A4FF" stroke-width="2" cx="16" cy="9" r="2"/><circle stroke="#00A4FF" stroke-width="2" cx="10" cy="20" r="2"/><circle stroke="#00A4FF" stroke-width="2" cx="22" cy="20" r="2"/></g><g fill-rule="nonzero" transform="translate(800 217)"><use fill="#000" xlink:href="#t"/><use fill="#444" xlink:href="#t"/></g></g></g></svg>